<svg width="77" height="77" viewBox="0 0 77 77" fill="none" xmlns="http://www.w3.org/2000/svg">
<circle cx="38.5" cy="38.5" r="38.5" fill="url(#paint0_linear_688_3980)"/>
<circle cx="38.5" cy="38.5" r="38" stroke="#012169" stroke-opacity="0.33"/>
<g clip-path="url(#clip0_688_3980)">
<path d="M30.1512 47.8929C29.94 48.0665 29.6527 48.1641 29.3529 48.1641C29.0531 48.1641 28.7657 48.0665 28.5546 47.8929L19.2447 40.3212C18.9283 40.0636 18.7504 39.7141 18.75 39.3496V38.6529C18.7552 38.2892 18.9324 37.9411 19.2447 37.6812L28.5546 30.1096C28.7657 29.936 29.0531 29.8384 29.3529 29.8384C29.6527 29.8384 29.94 29.936 30.1512 30.1096L31.7478 31.4112C31.9593 31.5802 32.0785 31.8115 32.0785 32.0529C32.0785 32.2943 31.9593 32.5256 31.7478 32.6946L23.9896 39.0012L31.7478 45.3079C31.9606 45.48 32.0804 45.7143 32.0804 45.9587C32.0804 46.2032 31.9606 46.4375 31.7478 46.6096L30.1512 47.8929ZM46.2297 31.3929C46.0169 31.565 45.8971 31.7993 45.8971 32.0437C45.8971 32.2882 46.0169 32.5225 46.2297 32.6946L53.9879 39.0012L46.2522 45.3079C46.0407 45.4769 45.9215 45.7081 45.9215 45.9496C45.9215 46.191 46.0407 46.4223 46.2522 46.5912L47.8488 47.8929C48.06 48.0665 48.3473 48.1641 48.6471 48.1641C48.9469 48.1641 49.2343 48.0665 49.4454 47.8929L58.7553 40.3212C59.0676 40.0614 59.2448 39.7133 59.25 39.3496V38.6529C59.2496 38.2884 59.0717 37.9389 58.7553 37.6812L49.4454 30.1096C49.2343 29.936 48.9469 29.8384 48.6471 29.8384C48.3473 29.8384 48.06 29.936 47.8488 30.1096L46.2297 31.3929Z" fill="#E1EBEE"/>
</g>
<defs>
<linearGradient id="paint0_linear_688_3980" x1="38.5" y1="0" x2="38.5" y2="77" gradientUnits="userSpaceOnUse">
<stop stop-color="#012169"/>
<stop offset="1" stop-color="#012169" stop-opacity="0.31"/>
</linearGradient>
<clipPath id="clip0_688_3980">
<rect width="44" height="54" fill="white" transform="matrix(0 -1 1 0 12 61)"/>
</clipPath>
</defs>
</svg>
