<svg width="77" height="77" viewBox="0 0 77 77" fill="none" xmlns="http://www.w3.org/2000/svg">
<ellipse cx="38.5" cy="38.0064" rx="38.5" ry="38.0064" fill="url(#paint0_linear_688_3987)"/>
<path d="M76.5 38.0064C76.5 58.7146 59.4929 75.5128 38.5 75.5128C17.5071 75.5128 0.5 58.7146 0.5 38.0064C0.5 17.2983 17.5071 0.5 38.5 0.5C59.4929 0.5 76.5 17.2983 76.5 38.0064Z" stroke="#00008B" stroke-opacity="0.26"/>
<g clip-path="url(#clip0_688_3987)">
<path d="M31.337 29.4324C31.337 25.196 35.4426 21.7617 40.5072 21.7617C45.5717 21.7617 49.6773 25.196 49.6773 29.4324C49.6773 33.6688 45.5717 37.103 40.5072 37.103C38.0751 37.103 35.7426 36.2949 34.0229 34.8563C32.3032 33.4178 31.337 31.4668 31.337 29.4324ZM58.5953 49.6637L55.294 44.1217C54.1276 42.1673 51.7385 40.934 49.1271 40.9383H31.8872C29.2758 40.934 26.8868 42.1673 25.7203 44.1217L22.4191 49.6637C22.0615 50.2573 22.0969 50.9634 22.5125 51.5298C22.9282 52.0963 23.6648 52.4423 24.4594 52.4443H56.5549C57.3495 52.4423 58.0861 52.0963 58.5018 51.5298C58.9175 50.9634 58.9528 50.2573 58.5953 49.6637Z" fill="#E1EBEE"/>
<path d="M18.6023 37.7031V37.3537C18.6023 36.3878 18.6818 35.6179 18.8409 35.044C19.0057 34.4702 19.2443 34.0099 19.5568 33.6634C19.8693 33.3111 20.25 32.9901 20.6989 32.7003C21.0568 32.473 21.375 32.2429 21.6534 32.0099C21.9375 31.7713 22.1619 31.5156 22.3267 31.2429C22.4915 30.9702 22.5739 30.6605 22.5739 30.3139C22.5739 29.9787 22.4943 29.6832 22.3352 29.4276C22.1761 29.1719 21.9574 28.9759 21.679 28.8395C21.4063 28.6974 21.1023 28.6264 20.767 28.6264C20.4318 28.6264 20.1165 28.7031 19.821 28.8565C19.5313 29.0099 19.2926 29.2287 19.1051 29.5128C18.9233 29.7912 18.8295 30.1293 18.8239 30.527H14.9034C14.9205 29.3338 15.196 28.3565 15.7301 27.5952C16.2699 26.8338 16.983 26.2713 17.8693 25.9077C18.7557 25.5384 19.733 25.3537 20.8011 25.3537C21.9716 25.3537 23.0114 25.5355 23.9205 25.8991C24.8352 26.2628 25.554 26.7997 26.0767 27.5099C26.5994 28.2202 26.8608 29.0895 26.8608 30.1179C26.8608 30.794 26.7472 31.3906 26.5199 31.9077C26.2926 32.4247 25.9744 32.8821 25.5653 33.2798C25.1619 33.6719 24.6875 34.0298 24.142 34.3537C23.7159 34.6037 23.3608 34.8651 23.0767 35.1378C22.7983 35.4105 22.5881 35.723 22.446 36.0753C22.304 36.4219 22.233 36.848 22.233 37.3537V37.7031H18.6023ZM20.4858 43.294C19.8722 43.294 19.3466 43.0781 18.9091 42.6463C18.4773 42.2145 18.2642 41.6918 18.2699 41.0781C18.2642 40.4759 18.4773 39.9616 18.9091 39.5355C19.3466 39.1037 19.8722 38.8878 20.4858 38.8878C21.071 38.8878 21.5852 39.1037 22.0284 39.5355C22.4716 39.9616 22.696 40.4759 22.7017 41.0781C22.696 41.4872 22.5881 41.8594 22.3778 42.1946C22.1733 42.5298 21.9034 42.7969 21.5682 42.9957C21.2386 43.1946 20.8778 43.294 20.4858 43.294Z" fill="#E1EBEE"/>
</g>
<defs>
<linearGradient id="paint0_linear_688_3987" x1="38.5" y1="0" x2="38.5" y2="76.0128" gradientUnits="userSpaceOnUse">
<stop stop-color="#00008B" stop-opacity="0.89"/>
<stop offset="1" stop-color="#00008B" stop-opacity="0.31"/>
</linearGradient>
<clipPath id="clip0_688_3987">
<rect width="55" height="46.0239" fill="white" transform="translate(13 14.0898)"/>
</clipPath>
</defs>
</svg>
