<svg width="294" height="263" viewBox="0 0 294 263" fill="none" xmlns="http://www.w3.org/2000/svg">
<path d="M72.5673 239.92L73.1652 253.658L73.1653 253.659C73.2661 255.981 72.5167 258.251 71.0817 259.971C69.6467 261.691 67.6438 262.719 65.5135 262.829L65.2525 262.843L64.2734 240.349L72.5673 239.92Z" fill="#2F2E41"/>
<path d="M251.773 216.701C245.769 229.47 238.155 241.82 228.521 252.997C228.307 253.25 228.09 253.496 227.872 253.746L205.046 241.967C205.186 241.715 205.339 241.431 205.503 241.12C215.309 222.834 274.499 111.287 272.629 86.0232C272.847 88.1069 279.863 157.015 251.773 216.701Z" fill="#E6E6E6"/>
<path d="M232.925 255.27C232.606 255.467 232.278 255.661 231.948 255.849L214.824 247.013C215.064 246.827 215.343 246.608 215.663 246.362C220.909 242.257 236.509 229.939 251.773 216.701C268.177 202.475 284.197 187.189 286.576 179.893C286.093 181.566 271.078 232.424 232.925 255.27Z" fill="#E6E6E6"/>
<path d="M28.4846 262.293C43.0798 262.293 54.9115 249.397 54.9115 233.489C54.9115 217.581 43.0798 204.684 28.4846 204.684C13.8894 204.684 2.05762 217.581 2.05762 233.489C2.05762 249.397 13.8894 262.293 28.4846 262.293Z" fill="#F4B719" fill-opacity="0.88"/>
<path d="M39.0702 221.401H17.8987C16.9632 221.403 16.0663 221.808 15.4048 222.529C14.7433 223.25 14.3712 224.228 14.3701 225.247V241.73C14.3712 242.75 14.7433 243.728 15.4048 244.449C16.0663 245.17 16.9632 245.575 17.8987 245.576H39.0703C40.0058 245.575 40.9027 245.17 41.5642 244.449C42.2257 243.728 42.5978 242.75 42.5989 241.73V225.247C42.5978 224.228 42.2257 223.25 41.5642 222.529C40.9027 221.808 40.0058 221.403 39.0702 221.401ZM39.0702 223.599C39.1966 223.6 39.3225 223.618 39.4448 223.652L28.4869 233.18L17.5932 223.633C17.6937 223.61 17.7961 223.599 17.8987 223.599H39.0702ZM39.0702 243.379H17.8987C17.4978 243.378 17.1134 243.204 16.8299 242.895C16.5464 242.586 16.3869 242.167 16.3865 241.73V225.395L27.8528 235.444C28.0313 235.601 28.2535 235.686 28.4826 235.687C28.7117 235.687 28.9341 235.603 29.1132 235.447L40.5825 225.474V241.73C40.5821 242.167 40.4226 242.586 40.1391 242.895C39.8556 243.204 39.4712 243.378 39.0702 243.379Z" fill="#E1EBEE"/>
<path d="M130.473 191.902L136.386 191.956C136.984 191.961 137.576 191.824 138.121 191.554C138.666 191.284 139.15 190.889 139.54 190.394C139.93 189.899 140.216 189.318 140.379 188.69C140.541 188.063 140.576 187.404 140.481 186.76C140.379 186.067 140.129 185.41 139.751 184.841C139.374 184.273 138.879 183.809 138.307 183.487C137.734 183.165 137.101 182.994 136.457 182.988C135.813 182.981 135.177 183.14 134.599 183.45L129.023 186.45L109.95 191.086L101.779 181.98L97.0859 190.406L108.112 199.691L130.473 191.902Z" fill="#FFB8B8"/>
<path d="M129.364 258.491L122.398 259.952C117.639 243.602 112.483 228.119 112.484 216.144C105.749 224.313 97.3983 228.987 87.5645 230.454L88.6362 212.347L96.6747 207.674L108.977 201.485C110.055 200.943 111.217 200.63 112.401 200.562C114.705 200.43 116.971 201.231 118.765 202.811C120.559 204.392 121.753 206.639 122.117 209.122L129.364 258.491Z" fill="#2F2E41"/>
<path d="M96.0052 228.263L93.2286 230.563C92.0346 231.552 90.6241 232.184 89.1371 232.395C87.65 232.607 86.1381 232.39 84.7514 231.768C76.7984 225.27 71.1483 227.187 66.0274 236.995C59.8851 229.439 58.3697 218.526 63.8515 207.235L94.2636 207.966L100.426 205.921L96.0052 228.263Z" fill="#2F2E41"/>
<path d="M85.8761 262.101C84.1335 262.685 82.2577 262.583 80.5775 261.811C78.8973 261.039 77.5197 259.648 76.6862 257.88C73.9531 255.257 71.6471 251.5 69.647 246.932C68.2119 243.581 66.9796 240.131 65.958 236.604C64.574 231.945 66.8882 226.855 71.1954 225.461C71.3235 225.42 71.4532 225.38 71.5844 225.344C77.3343 223.735 83.2391 227.35 85.2045 233.455L90.9198 251.209C91.2574 252.258 91.4022 253.369 91.3459 254.478C91.2896 255.588 91.0333 256.675 90.5916 257.677C90.1499 258.679 89.5316 259.576 88.7718 260.317C88.012 261.059 87.1257 261.63 86.1634 261.998C86.0683 262.034 85.9725 262.068 85.8761 262.101Z" fill="#2F2E41"/>
<path opacity="0.2" d="M68.6738 244.912C68.6738 244.912 75.3725 253.089 76.7123 257.762L68.6738 244.912Z" fill="black"/>
<path d="M42.6946 206.317L40.4526 212.282C40.2258 212.885 40.1225 213.535 40.1498 214.187C40.1772 214.838 40.3346 215.475 40.6111 216.054C40.8875 216.632 41.2764 217.138 41.7506 217.535C42.2248 217.933 42.7729 218.213 43.3567 218.356C43.9849 218.51 44.6376 218.502 45.2621 218.33C45.8867 218.159 46.4656 217.831 46.9525 217.371C47.4393 216.912 47.8203 216.334 48.065 215.685C48.3096 215.036 48.411 214.333 48.361 213.633L47.8779 206.876L51.0147 185.853L61.8063 180.967L56.3731 173.088L44.3678 180.796L42.6946 206.317Z" fill="#FFB8B8"/>
<path d="M96.2728 207.236C88.574 221.331 73.2262 226.789 60.0809 215.752C62.3933 207.47 69.8591 184.583 65.036 183.707C54.7956 188.387 54.7807 177.397 52.8652 171.897L76.1767 162.552L88.7702 166.348L91.3518 167.347C93.0318 167.996 94.489 169.191 95.5274 170.771C96.5657 172.35 97.1354 174.238 97.1598 176.181C91.8697 184.511 87.9536 193.398 96.2728 207.236Z" fill="#F4B719" fill-opacity="0.88"/>
<path d="M99.2208 195.844L89.9766 187.521L93.058 168.099L105.652 182.702L99.2208 195.844Z" fill="#F4B719" fill-opacity="0.88"/>
<path d="M252.61 62.4244H251.289V22.9821C251.289 16.9278 249.083 11.1216 245.155 6.84058C241.227 2.55958 235.9 0.154541 230.346 0.154541H153.679C148.124 0.154541 142.797 2.55958 138.87 6.84058C134.942 11.1216 132.735 16.9278 132.735 22.9821V239.366C132.735 245.421 134.942 251.227 138.87 255.508C142.797 259.789 148.124 262.194 153.679 262.194H230.345C235.9 262.194 241.227 259.789 245.154 255.508C249.082 251.227 251.289 245.421 251.289 239.366V90.5001H252.61L252.61 62.4244Z" fill="#3F3D56"/>
<path d="M231.19 6.0923H221.183C221.643 7.32221 221.819 8.65668 221.695 9.97813C221.57 11.2996 221.15 12.5674 220.47 13.67C219.79 14.7725 218.872 15.6759 217.797 16.3006C216.721 16.9252 215.521 17.2519 214.302 17.2519H170.381C169.162 17.2518 167.963 16.925 166.887 16.3004C165.812 15.6758 164.894 14.7725 164.214 13.6701C163.534 12.5677 163.114 11.3001 162.989 9.9788C162.865 8.65753 163.041 7.32321 163.501 6.09338H154.153C150.004 6.09338 146.026 7.88949 143.093 11.0866C140.16 14.2837 138.512 18.6199 138.512 23.1413V239.207C138.512 243.728 140.16 248.065 143.093 251.262C146.026 254.459 150.004 256.255 154.153 256.255H231.187C235.335 256.255 239.314 254.459 242.247 251.262C245.18 248.065 246.828 243.728 246.828 239.207V23.1402C246.828 18.6188 245.18 14.2826 242.247 11.0855C239.314 7.8884 235.335 6.09229 231.187 6.09229L231.19 6.0923Z" fill="#E1EBEE"/>
<path d="M192.804 244.18C197.547 244.18 201.392 239.989 201.392 234.819C201.392 229.649 197.547 225.458 192.804 225.458C188.06 225.458 184.215 229.649 184.215 234.819C184.215 239.989 188.06 244.18 192.804 244.18Z" fill="#E6E6E6"/>
<path d="M157.962 148.245C157.15 148.245 156.489 149.067 156.489 150.077C156.489 151.087 157.15 151.909 157.962 151.909H227.38C228.191 151.909 228.852 151.087 228.852 150.077C228.852 149.067 228.191 148.245 227.38 148.245H157.962Z" fill="#E6E6E6"/>
<path d="M157.962 191.452C157.15 191.452 156.489 192.274 156.489 193.284C156.489 194.294 157.15 195.116 157.962 195.116H227.38C228.191 195.116 228.852 194.294 228.852 193.284C228.852 192.274 228.191 191.452 227.38 191.452H157.962Z" fill="#E6E6E6"/>
<path d="M157.962 159.236C157.15 159.236 156.489 160.058 156.489 161.068C156.489 162.078 157.15 162.9 157.962 162.9H187.832C188.644 162.9 189.305 162.078 189.305 161.068C189.305 160.058 188.644 159.236 187.832 159.236H157.962Z" fill="#E6E6E6"/>
<path d="M157.962 169.714C157.15 169.714 156.489 170.536 156.489 171.546C156.489 172.556 157.15 173.378 157.962 173.378H227.38C228.191 173.378 228.852 172.556 228.852 171.546C228.852 170.536 228.191 169.714 227.38 169.714H157.962Z" fill="#E6E6E6"/>
<path d="M157.962 180.706C157.15 180.706 156.489 181.527 156.489 182.537C156.489 183.548 157.15 184.369 157.962 184.369H187.832C188.644 184.369 189.305 183.548 189.305 182.537C189.305 181.527 188.644 180.706 187.832 180.706H157.962Z" fill="#E6E6E6"/>
<path d="M171.066 64.8311H214.279C214.756 64.8317 215.214 65.0386 215.551 65.4065C215.889 65.7744 216.079 66.2733 216.079 66.7936V115.846C216.079 116.367 215.889 116.866 215.551 117.233C215.214 117.601 214.756 117.808 214.279 117.809H171.066C170.589 117.808 170.131 117.601 169.794 117.233C169.456 116.866 169.266 116.367 169.266 115.846V66.7935C169.266 66.2732 169.456 65.7744 169.794 65.4065C170.131 65.0386 170.589 64.8317 171.066 64.8311Z" fill="#F4B719" fill-opacity="0.88"/>
<path d="M205.071 107.692C205.232 107.692 205.391 107.658 205.539 107.592C205.688 107.525 205.823 107.427 205.937 107.303C206.05 107.179 206.141 107.032 206.202 106.871C206.264 106.709 206.296 106.536 206.296 106.36C206.296 106.185 206.264 106.012 206.203 105.85C206.141 105.688 206.051 105.541 205.937 105.417C205.824 105.293 205.689 105.195 205.54 105.128C205.392 105.062 205.233 105.027 205.072 105.027H180.274C180.113 105.027 179.954 105.061 179.805 105.128C179.657 105.195 179.522 105.293 179.408 105.416C179.294 105.54 179.204 105.687 179.142 105.849C179.081 106.011 179.049 106.184 179.049 106.359C179.049 106.534 179.08 106.708 179.142 106.869C179.203 107.031 179.293 107.178 179.407 107.302C179.521 107.426 179.656 107.524 179.804 107.591C179.953 107.658 180.112 107.692 180.273 107.692H205.071Z" fill="#E1EBEE"/>
<path d="M205.071 99.8434C205.395 99.8434 205.706 99.7031 205.935 99.4532C206.164 99.2033 206.293 98.8644 206.293 98.5111C206.293 98.1577 206.164 97.8188 205.935 97.569C205.706 97.3191 205.395 97.1787 205.071 97.1787H180.274C179.95 97.1785 179.639 97.3188 179.409 97.5685C179.18 97.8182 179.051 98.1571 179.051 98.5104C179.051 98.8638 179.179 99.2028 179.408 99.4527C179.638 99.7027 179.948 99.8433 180.273 99.8434H205.071Z" fill="#E1EBEE"/>
<path d="M192.672 74.9465C194.194 74.9465 195.681 75.4384 196.947 76.3599C198.212 77.2815 199.198 78.5913 199.781 80.1237C200.363 81.6562 200.515 83.3425 200.218 84.9693C199.922 86.5961 199.189 88.0905 198.113 89.2634C197.037 90.4363 195.666 91.235 194.173 91.5586C192.68 91.8822 191.133 91.7162 189.727 91.0814C188.321 90.4466 187.12 89.3717 186.274 87.9925C185.429 86.6133 184.978 84.9919 184.978 83.3332C184.98 81.1097 185.791 78.9779 187.234 77.4057C188.676 75.8334 190.632 74.949 192.672 74.9465Z" fill="#E1EBEE"/>
<path d="M94.4978 160.009H71.6551C71.1852 160.008 70.7347 159.805 70.4025 159.443C70.0702 159.08 69.8833 158.589 69.8828 158.077V147.345C69.8828 143.531 71.2729 139.874 73.7471 137.177C76.2214 134.48 79.5773 132.965 83.0765 132.965C86.5757 132.965 89.9315 134.48 92.4058 137.177C94.8801 139.874 96.2701 143.531 96.2701 147.345V158.077C96.2696 158.589 96.0827 159.08 95.7505 159.443C95.4182 159.805 94.9677 160.008 94.4978 160.009Z" fill="#2F2E41"/>
<path d="M94.086 153.876C96.6485 148.766 94.9257 142.36 90.238 139.567C85.5504 136.774 79.673 138.652 77.1105 143.761C74.548 148.871 76.2708 155.277 80.9584 158.07C85.6461 160.863 91.5235 158.985 94.086 153.876Z" fill="#FFB6B6"/>
<path d="M99.3906 148.418H85.4228L85.2796 146.232L84.5634 148.418H82.4127L82.1288 144.086L80.7094 148.418H76.5479V148.203C76.551 145.187 77.6515 142.296 79.6081 140.163C81.5647 138.031 84.2175 136.831 86.9845 136.828H88.9538C91.7209 136.831 94.3737 138.031 96.3303 140.163C98.2869 142.296 99.3875 145.187 99.3906 148.203V148.418Z" fill="#2F2E41"/>
<path d="M85.3091 162.012C85.2039 162.012 85.099 162.002 84.9954 161.982L74.7676 160.015V141.59H86.0265L85.7477 141.945C81.8695 146.874 84.7913 154.868 86.8781 159.195C87.0319 159.512 87.1005 159.869 87.0759 160.227C87.0514 160.584 86.9347 160.927 86.7393 161.215C86.5757 161.462 86.3608 161.663 86.1121 161.801C85.8635 161.94 85.5883 162.012 85.3091 162.012Z" fill="#2F2E41"/>
<path d="M119.361 252.978L131.98 252.978H131.981C134.113 252.978 136.159 253.901 137.667 255.545C139.175 257.189 140.022 259.418 140.022 261.743V262.027L119.362 262.028L119.361 252.978Z" fill="#2F2E41"/>
<path d="M293.67 262.918H0.330337C0.242726 262.918 0.158703 262.88 0.0967532 262.813C0.034803 262.745 0 262.654 0 262.558C0 262.463 0.034803 262.371 0.0967532 262.304C0.158703 262.236 0.242726 262.198 0.330337 262.198H293.67C293.757 262.198 293.841 262.236 293.903 262.304C293.965 262.371 294 262.463 294 262.558C294 262.654 293.965 262.745 293.903 262.813C293.841 262.88 293.757 262.918 293.67 262.918Z" fill="#CACACA"/>
</svg>
