<svg width="77" height="77" viewBox="0 0 77 77" fill="none" xmlns="http://www.w3.org/2000/svg">
<circle cx="38.5" cy="38.5" r="38.5" fill="url(#paint0_linear_688_3995)" fill-opacity="0.88"/>
<circle cx="38.5" cy="38.5" r="38" stroke="#002147" stroke-opacity="0.44"/>
<g clip-path="url(#clip0_688_3995)">
<path d="M60.0833 49.9987H57.3333V26.1654C57.3333 25.6791 57.1402 25.2128 56.7964 24.869C56.4525 24.5252 55.9862 24.332 55.5 24.332H22.5C22.0138 24.332 21.5475 24.5252 21.2036 24.869C20.8598 25.2128 20.6667 25.6791 20.6667 26.1654V49.9987H17.9167C17.6736 49.9987 17.4404 50.0953 17.2685 50.2672C17.0966 50.4391 17 50.6723 17 50.9154V51.832C17 52.3183 17.1932 52.7846 17.537 53.1284C17.8808 53.4722 18.3471 53.6654 18.8333 53.6654H59.1667C59.6529 53.6654 60.1192 53.4722 60.463 53.1284C60.8068 52.7846 61 52.3183 61 51.832V50.9154C61 50.6723 60.9034 50.4391 60.7315 50.2672C60.5596 50.0953 60.3265 49.9987 60.0833 49.9987ZM39 29.3737C39.8158 29.3737 40.6134 29.6156 41.2917 30.0689C41.9701 30.5221 42.4988 31.1664 42.811 31.9201C43.1232 32.6739 43.2049 33.5033 43.0457 34.3034C42.8866 35.1036 42.4937 35.8386 41.9168 36.4155C41.3399 36.9924 40.6049 37.3853 39.8047 37.5444C39.0046 37.7036 38.1752 37.6219 37.4214 37.3097C36.6677 36.9975 36.0234 36.4688 35.5702 35.7904C35.1169 35.1121 34.875 34.3145 34.875 33.4987C34.8726 32.9563 34.9776 32.4188 35.1841 31.9173C35.3905 31.4157 35.6942 30.96 36.0778 30.5765C36.4613 30.1929 36.917 29.8892 37.4186 29.6828C37.9201 29.4763 38.4576 29.3713 39 29.3737ZM46.7917 48.1654H31.2083C30.9729 48.1658 30.7413 48.1059 30.5358 47.9912C30.3302 47.8765 30.1575 47.711 30.0342 47.5104C29.9109 47.3099 29.8412 47.081 29.8317 46.8458C29.8222 46.6106 29.8733 46.3769 29.98 46.167L31.6667 42.8487C31.97 42.2468 32.4333 41.7401 33.0057 41.3843C33.5782 41.0285 34.2377 40.8375 34.9117 40.832H43.0883C43.7623 40.8375 44.4218 41.0285 44.9943 41.3843C45.5667 41.7401 46.0301 42.2468 46.3333 42.8487L47.9833 46.167C48.0887 46.3741 48.1399 46.6045 48.1322 46.8368C48.1244 47.069 48.0579 47.2955 47.9389 47.495C47.8199 47.6946 47.6523 47.8607 47.4516 47.978C47.251 48.0952 47.024 48.1597 46.7917 48.1654Z" fill="#E1EBEE"/>
</g>
<defs>
<linearGradient id="paint0_linear_688_3995" x1="38.5" y1="0" x2="38.5" y2="77" gradientUnits="userSpaceOnUse">
<stop offset="0.0343749" stop-color="#002147" stop-opacity="0.89"/>
<stop offset="0.9999" stop-color="#003153" stop-opacity="0.89"/>
<stop offset="1" stop-color="#002147" stop-opacity="0.31"/>
</linearGradient>
<clipPath id="clip0_688_3995">
<rect width="44" height="44" fill="white" transform="translate(17 17)"/>
</clipPath>
</defs>
</svg>
