<svg width="206" height="97" viewBox="0 0 206 97" fill="none" xmlns="http://www.w3.org/2000/svg">
<path d="M47.431 84.7159C47.9388 80.6971 50.4699 76.7375 54.3648 75.4297C52.8288 79.5661 52.8291 84.1038 54.3658 88.24C54.9642 89.833 55.7985 91.5436 55.2355 93.1491C54.8853 94.1481 54.0284 94.9125 53.0705 95.3904C52.1126 95.8683 51.0496 96.0961 49.9998 96.3193L49.7932 96.4875C48.1268 92.7846 46.9231 88.7346 47.431 84.7159Z" fill="#E1EBEE"/>
<path d="M54.4043 75.505C52.1361 78.0058 50.7263 81.1463 50.3752 84.4805C50.2867 85.1969 50.3135 85.9226 50.4546 86.6309C50.6147 87.3164 50.9585 87.9472 51.4502 88.4578C51.8989 88.943 52.415 89.3881 52.7361 89.9721C52.8959 90.2735 52.9892 90.6047 53.0099 90.944C53.0305 91.2833 52.978 91.6231 52.8558 91.941C52.5724 92.7411 52.0137 93.3932 51.4448 94.0122C50.8131 94.6996 50.146 95.4036 49.8775 96.3148C49.8449 96.4252 49.6728 96.3691 49.7052 96.2588C50.1724 94.6735 51.7363 93.773 52.4821 92.3452C52.8301 91.6789 52.9762 90.9054 52.65 90.2021C52.3647 89.587 51.8328 89.1276 51.3742 88.6402C50.8871 88.149 50.5297 87.548 50.3331 86.8895C50.1558 86.1906 50.1006 85.4672 50.17 84.7501C50.2999 83.1332 50.6875 81.5466 51.3183 80.0482C52.0287 78.3341 53.0318 76.7523 54.2842 75.3711C54.3618 75.2857 54.4813 75.4201 54.4043 75.505Z" fill="#E1EBEE"/>
<path d="M50.4233 83.4013C49.8628 83.2674 49.369 82.9417 49.0299 82.4824C48.6909 82.0232 48.5287 81.4602 48.5724 80.8941C48.5817 80.7796 48.7629 80.7884 48.7536 80.903C48.7119 81.4301 48.863 81.9545 49.1797 82.3815C49.4963 82.8085 49.9575 83.1101 50.4802 83.2318C50.5937 83.2584 50.5362 83.4278 50.4233 83.4013Z" fill="#E1EBEE"/>
<path d="M51.1893 88.2401C52.2016 87.6452 52.9489 86.6965 53.2821 85.5833C53.3151 85.4729 53.4873 85.5291 53.4544 85.6393C53.1054 86.7971 52.3257 87.7827 51.2708 88.3996C51.1703 88.4583 51.0892 88.2985 51.1893 88.2401Z" fill="#E1EBEE"/>
<path d="M52.1975 78.5003C52.4034 78.5965 52.6303 78.641 52.858 78.6296C53.0857 78.6182 53.3069 78.5514 53.5018 78.4351C53.6016 78.3752 53.6825 78.535 53.5834 78.5945C53.3674 78.722 53.123 78.7955 52.8715 78.8087C52.62 78.8218 52.3691 78.7741 52.1406 78.6698C52.1182 78.6617 52.0998 78.6456 52.0891 78.6246C52.0784 78.6037 52.0762 78.5795 52.0829 78.557C52.0906 78.5346 52.1069 78.5161 52.1283 78.5055C52.1498 78.4948 52.1746 78.493 52.1975 78.5003Z" fill="#E1EBEE"/>
<path d="M66.2382 82.607C66.177 82.6461 66.1158 82.6853 66.0545 82.726C65.2342 83.2568 64.4591 83.8522 63.7369 84.5065C63.6802 84.5562 63.6235 84.6075 63.5684 84.6587C61.8454 86.2533 60.4382 88.1488 59.4183 90.2489C59.0133 91.0849 58.6735 91.95 58.4018 92.8368C58.0267 94.0615 57.7191 95.4187 56.9766 96.4205C56.9003 96.5259 56.8175 96.6265 56.7286 96.7218H50.0189C50.0036 96.7142 49.9883 96.7082 49.973 96.7007L49.7051 96.7127C49.7158 96.666 49.728 96.6178 49.7388 96.5711C49.7449 96.544 49.7525 96.5169 49.7587 96.4898C49.7632 96.4717 49.7679 96.4536 49.7709 96.4371C49.7724 96.431 49.774 96.425 49.7755 96.4205C49.7786 96.4039 49.7832 96.3889 49.7863 96.3738C49.8536 96.1042 49.923 95.8345 49.9944 95.5649C49.9944 95.5634 49.9944 95.5634 49.9959 95.5619C50.5203 93.5021 51.2911 91.5108 52.2922 89.6297C52.3228 89.574 52.3534 89.5167 52.3871 89.461C52.8507 88.6283 53.3827 87.8343 53.9777 87.087C54.3049 86.6787 54.6528 86.2871 55.0202 85.9135C55.9714 84.95 57.0707 84.1397 58.2778 83.5123C60.6843 82.262 63.4705 81.783 66.0423 82.5467C66.1081 82.5663 66.1725 82.5859 66.2382 82.607Z" fill="#E1EBEE"/>
<path d="M66.2232 82.6877C62.882 83.3407 59.8349 85.013 57.5146 87.4672C57.0055 87.9868 56.5829 88.5821 56.2623 89.2312C55.9707 89.8734 55.8592 90.5808 55.9394 91.2798C56.0008 91.933 56.1405 92.5941 56.0396 93.2506C55.9828 93.5859 55.8546 93.9057 55.6635 94.1888C55.4724 94.472 55.2226 94.7122 54.9305 94.8937C54.2146 95.3645 53.3695 95.5542 52.5366 95.7114C51.6117 95.886 50.6482 96.0529 49.8764 96.6213C49.7828 96.6902 49.6797 96.5434 49.7731 96.4746C51.116 95.4856 52.9157 95.6931 54.3848 94.9949C55.0704 94.6691 55.6603 94.138 55.8301 93.3832C55.9786 92.7231 55.8351 92.0412 55.7671 91.3803C55.6787 90.6996 55.7611 90.0079 56.007 89.3657C56.293 88.7026 56.6916 88.0923 57.1858 87.5608C58.2788 86.3469 59.559 85.3096 60.9795 84.487C62.5955 83.5393 64.3642 82.8705 66.2093 82.5097C66.3235 82.4875 66.3367 82.6656 66.2232 82.6877Z" fill="#E1EBEE"/>
<path d="M58.2149 86.6371C57.8493 86.198 57.6542 85.6452 57.6644 85.0776C57.6747 84.51 57.8895 83.9644 58.2707 83.5383C58.3481 83.4523 58.4874 83.5667 58.4099 83.6528C58.0542 84.0489 57.8541 84.5571 57.8457 85.0857C57.8373 85.6144 58.0211 86.1285 58.364 86.5354C58.4385 86.6239 58.2889 86.7251 58.2149 86.6371Z" fill="#E1EBEE"/>
<path d="M55.8636 90.9541C57.0358 91.079 58.2128 90.7643 59.1598 90.0725C59.2535 90.0039 59.3567 90.1508 59.2631 90.2194C58.2762 90.9374 57.0507 91.2625 55.8312 91.1299C55.715 91.1171 55.748 90.9414 55.8636 90.9541Z" fill="#E1EBEE"/>
<path d="M62.628 83.7727C62.7335 83.9717 62.8875 84.1418 63.0762 84.2677C63.265 84.3936 63.4825 84.4714 63.7093 84.4941C63.8256 84.5053 63.7925 84.681 63.6769 84.6698C63.4264 84.6437 63.1863 84.5575 62.9775 84.4188C62.7686 84.2802 62.5975 84.0932 62.4789 83.8744C62.4659 83.8547 62.4611 83.8309 62.4654 83.8078C62.4696 83.7847 62.4826 83.7641 62.5018 83.7501C62.5216 83.7367 62.546 83.7316 62.5696 83.7358C62.5932 83.74 62.6142 83.7533 62.628 83.7727Z" fill="#E1EBEE"/>
<path d="M168.197 86.1374C167.757 82.6631 165.569 79.24 162.202 78.1094C163.53 81.6853 163.53 85.6083 162.201 89.1841C161.684 90.5613 160.963 92.04 161.449 93.428C161.752 94.2917 162.493 94.9525 163.321 95.3656C164.149 95.7788 165.068 95.9757 165.976 96.1687L166.154 96.3141C167.595 93.1129 168.636 89.6116 168.197 86.1374Z" fill="#E1EBEE"/>
<path d="M162.169 78.1706C164.13 80.3326 165.349 83.0477 165.652 85.9301C165.729 86.5495 165.706 87.1768 165.584 87.7891C165.445 88.3818 165.148 88.9271 164.723 89.3685C164.335 89.788 163.889 90.1728 163.611 90.6777C163.473 90.9382 163.392 91.2245 163.374 91.5179C163.357 91.8112 163.402 92.105 163.508 92.3798C163.753 93.0715 164.236 93.6352 164.728 94.1704C165.274 94.7646 165.85 95.3732 166.082 96.161C166.111 96.2564 166.259 96.2079 166.231 96.1126C165.828 94.7421 164.475 93.9636 163.831 92.7292C163.53 92.1532 163.404 91.4845 163.686 90.8764C163.932 90.3447 164.392 89.9475 164.789 89.5262C165.21 89.1016 165.519 88.582 165.689 88.0127C165.842 87.4085 165.89 86.7831 165.83 86.1632C165.717 84.7654 165.382 83.3937 164.837 82.0983C164.223 80.6165 163.355 79.249 162.273 78.0549C162.206 77.981 162.102 78.0972 162.169 78.1706Z" fill="#E1EBEE"/>
<path d="M165.61 85.0037C166.095 84.8879 166.522 84.6063 166.815 84.2093C167.108 83.8123 167.248 83.3256 167.21 82.8362C167.202 82.7372 167.046 82.7448 167.054 82.8439C167.09 83.2995 166.959 83.7529 166.685 84.1221C166.412 84.4912 166.013 84.7519 165.561 84.8571C165.463 84.8801 165.513 85.0266 165.61 85.0037Z" fill="#E1EBEE"/>
<path d="M164.948 89.1845C164.073 88.6702 163.427 87.8501 163.139 86.8877C163.11 86.7923 162.961 86.8408 162.99 86.9361C163.292 87.937 163.966 88.7891 164.878 89.3224C164.965 89.3732 165.035 89.235 164.948 89.1845Z" fill="#E1EBEE"/>
<path d="M164.076 80.7633C163.898 80.8467 163.702 80.8853 163.505 80.8754C163.308 80.8655 163.117 80.8076 162.948 80.7068C162.862 80.6548 162.792 80.7934 162.878 80.845C163.065 80.9555 163.276 81.0193 163.493 81.0306C163.711 81.042 163.928 81.0006 164.125 80.9102C164.145 80.9032 164.16 80.8892 164.17 80.8711C164.179 80.8529 164.181 80.832 164.175 80.8125C164.168 80.7931 164.154 80.777 164.136 80.7678C164.117 80.7586 164.096 80.7569 164.076 80.7633Z" fill="#E1EBEE"/>
<path d="M151.938 84.3147C151.991 84.3486 152.044 84.3824 152.097 84.4176C152.806 84.8765 153.477 85.3912 154.101 85.9569C154.15 85.9999 154.199 86.0442 154.247 86.0884C155.736 87.467 156.953 89.1057 157.834 90.9212C158.185 91.644 158.478 92.3919 158.713 93.1585C159.037 94.2173 159.303 95.3906 159.945 96.2567C160.011 96.3477 160.083 96.4347 160.16 96.5171H165.96C165.973 96.5106 165.987 96.5054 166 96.4989L166.232 96.5093C166.222 96.4689 166.212 96.4273 166.202 96.3869C166.197 96.3635 166.191 96.34 166.185 96.3166C166.181 96.3009 166.177 96.2853 166.175 96.271C166.173 96.2658 166.172 96.2606 166.171 96.2567C166.168 96.2423 166.164 96.2293 166.161 96.2163C166.103 95.9832 166.043 95.7501 165.981 95.517C165.981 95.5157 165.981 95.5157 165.98 95.5144C165.527 93.7337 164.86 92.0122 163.995 90.386C163.969 90.3378 163.942 90.2883 163.913 90.2401C163.512 89.5203 163.052 88.8338 162.538 88.1877C162.255 87.8348 161.954 87.4962 161.637 87.1732C160.814 86.3403 159.864 85.6398 158.82 85.0974C156.74 84.0165 154.331 83.6024 152.108 84.2626C152.051 84.2796 151.995 84.2965 151.938 84.3147Z" fill="#E1EBEE"/>
<path d="M151.952 84.3821C154.84 84.9466 157.475 86.3924 159.481 88.514C159.921 88.9632 160.286 89.4778 160.563 90.039C160.815 90.5942 160.912 91.2057 160.842 91.81C160.789 92.3747 160.668 92.9463 160.756 93.5139C160.805 93.8038 160.916 94.0802 161.081 94.3249C161.246 94.5697 161.462 94.7774 161.715 94.9343C162.333 95.3413 163.064 95.5053 163.784 95.6412C164.584 95.7922 165.417 95.9364 166.084 96.4279C166.165 96.4874 166.254 96.3605 166.173 96.301C165.012 95.446 163.456 95.6254 162.186 95.0218C161.594 94.7402 161.084 94.2811 160.937 93.6285C160.808 93.0578 160.932 92.4683 160.991 91.897C161.068 91.3085 160.996 90.7105 160.784 90.1553C160.537 89.5821 160.192 89.0544 159.765 88.595C158.82 87.5455 157.713 86.6487 156.485 85.9376C155.088 85.1183 153.559 84.5401 151.964 84.2282C151.865 84.209 151.854 84.363 151.952 84.3821Z" fill="#E1EBEE"/>
<path d="M158.876 87.799C159.192 87.4194 159.36 86.9416 159.352 86.4508C159.343 85.9601 159.157 85.4885 158.828 85.1201C158.761 85.0458 158.64 85.1447 158.707 85.2191C159.015 85.5615 159.188 86.0009 159.195 86.4579C159.202 86.9149 159.043 87.3594 158.747 87.7111C158.682 87.7877 158.812 87.8751 158.876 87.799Z" fill="#E1EBEE"/>
<path d="M160.907 91.5275C159.894 91.6356 158.876 91.3634 158.058 90.7654C157.977 90.7061 157.887 90.8331 157.968 90.8924C158.822 91.5131 159.881 91.7942 160.935 91.6795C161.036 91.6685 161.007 91.5166 160.907 91.5275Z" fill="#E1EBEE"/>
<path d="M155.061 85.3222C154.97 85.4942 154.837 85.6413 154.673 85.7502C154.51 85.859 154.322 85.9262 154.126 85.9458C154.026 85.9556 154.054 86.1075 154.154 86.0978C154.371 86.0752 154.578 86.0007 154.759 85.8808C154.939 85.7609 155.087 85.5993 155.19 85.4101C155.201 85.3931 155.205 85.3725 155.202 85.3525C155.198 85.3326 155.187 85.3147 155.17 85.3027C155.153 85.2911 155.132 85.2867 155.111 85.2903C155.091 85.294 155.073 85.3054 155.061 85.3222Z" fill="#E1EBEE"/>
<path d="M180.303 7.10088H43.7919C43.7393 7.10088 43.6889 7.08033 43.6518 7.04377C43.6146 7.00721 43.5938 6.95762 43.5938 6.90591C43.5938 6.8542 43.6146 6.80461 43.6518 6.76804C43.6889 6.73148 43.7393 6.71094 43.7919 6.71094H180.303C180.356 6.71094 180.406 6.73148 180.443 6.76804C180.48 6.80461 180.501 6.8542 180.501 6.90591C180.501 6.95762 180.48 7.00721 180.443 7.04377C180.406 7.08033 180.356 7.10088 180.303 7.10088Z" fill="#E1EBEE"/>
<path d="M48.2517 4.3673C49.4554 4.3673 50.4311 3.40714 50.4311 2.22271C50.4311 1.03829 49.4554 0.078125 48.2517 0.078125C47.048 0.078125 46.0723 1.03829 46.0723 2.22271C46.0723 3.40714 47.048 4.3673 48.2517 4.3673Z" fill="#3F3D56"/>
<path d="M55.782 4.3673C56.9856 4.3673 57.9614 3.40714 57.9614 2.22271C57.9614 1.03829 56.9856 0.078125 55.782 0.078125C54.5783 0.078125 53.6025 1.03829 53.6025 2.22271C53.6025 3.40714 54.5783 4.3673 55.782 4.3673Z" fill="#3F3D56"/>
<path d="M63.3093 4.3673C64.513 4.3673 65.4887 3.40714 65.4887 2.22271C65.4887 1.03829 64.513 0.078125 63.3093 0.078125C62.1056 0.078125 61.1299 1.03829 61.1299 2.22271C61.1299 3.40714 62.1056 4.3673 63.3093 4.3673Z" fill="#3F3D56"/>
<path d="M175.793 2.858H170.443C170.338 2.858 170.237 2.81692 170.163 2.74379C170.089 2.67066 170.047 2.57148 170.047 2.46806C170.047 2.36465 170.089 2.26546 170.163 2.19234C170.237 2.11921 170.338 2.07813 170.443 2.07812H175.793C175.898 2.07812 175.999 2.11921 176.073 2.19234C176.147 2.26546 176.189 2.36465 176.189 2.46806C176.189 2.57148 176.147 2.67066 176.073 2.74379C175.999 2.81692 175.898 2.858 175.793 2.858Z" fill="#3F3D56"/>
<path d="M175.793 4.31112H170.443C170.338 4.31112 170.237 4.27004 170.163 4.19691C170.089 4.12378 170.047 4.0246 170.047 3.92119C170.047 3.81777 170.089 3.71859 170.163 3.64546C170.237 3.57233 170.338 3.53125 170.443 3.53125H175.793C175.845 3.53113 175.896 3.54113 175.945 3.56068C175.993 3.58022 176.037 3.60892 176.073 3.64514C176.11 3.68136 176.14 3.72439 176.16 3.77176C176.18 3.81912 176.19 3.8699 176.19 3.92119C176.19 3.97247 176.18 4.02325 176.16 4.07061C176.14 4.11798 176.11 4.16101 176.073 4.19723C176.037 4.23345 175.993 4.26215 175.945 4.2817C175.896 4.30124 175.845 4.31124 175.793 4.31112Z" fill="#3F3D56"/>
<path d="M176.189 15.4531H147.658V32.2856H176.189V15.4531Z" fill="#2AFF30"/>
<path d="M170.497 40.0204H153.521C153.309 40.02 153.106 39.9369 152.956 39.7893C152.807 39.6416 152.723 39.4415 152.723 39.2328C152.723 39.0242 152.807 38.8241 152.956 38.6764C153.106 38.5288 153.309 38.4456 153.521 38.4453H170.497C170.709 38.4453 170.912 38.5283 171.062 38.676C171.212 38.8237 171.296 39.024 171.296 39.2328C171.296 39.4417 171.212 39.642 171.062 39.7897C170.912 39.9374 170.709 40.0204 170.497 40.0204Z" fill="#E1EBEE"/>
<path d="M167.761 37.3251H156.259C156.154 37.3252 156.05 37.305 155.952 37.2655C155.855 37.226 155.767 37.168 155.693 37.0948C155.618 37.0217 155.559 36.9348 155.519 36.8392C155.479 36.7436 155.458 36.6411 155.458 36.5375C155.458 36.434 155.479 36.3315 155.519 36.2359C155.559 36.1402 155.618 36.0534 155.693 35.9802C155.767 35.9071 155.855 35.8491 155.952 35.8096C156.05 35.7701 156.154 35.7498 156.259 35.75H167.761C167.866 35.7498 167.97 35.7701 168.067 35.8096C168.164 35.8491 168.252 35.9071 168.327 35.9802C168.401 36.0534 168.46 36.1402 168.5 36.2359C168.541 36.3315 168.561 36.434 168.561 36.5375C168.561 36.6411 168.541 36.7436 168.5 36.8392C168.46 36.9348 168.401 37.0217 168.327 37.0948C168.252 37.168 168.164 37.226 168.067 37.2655C167.97 37.305 167.866 37.3252 167.761 37.3251Z" fill="#E1EBEE"/>
<path d="M176.189 46.0703H147.658V62.9028H176.189V46.0703Z" fill="#E1EBEE"/>
<path d="M170.498 70.6376H153.522C153.31 70.6376 153.107 70.5546 152.957 70.4069C152.807 70.2592 152.723 70.0589 152.723 69.85C152.723 69.6412 152.807 69.4409 152.957 69.2932C153.107 69.1455 153.31 69.0625 153.522 69.0625H170.498C170.71 69.0625 170.913 69.1455 171.063 69.2932C171.213 69.4409 171.297 69.6412 171.297 69.85C171.297 70.0589 171.213 70.2592 171.063 70.4069C170.913 70.5546 170.71 70.6376 170.498 70.6376Z" fill="#E1EBEE"/>
<path d="M167.759 67.9422H156.258C156.046 67.9422 155.842 67.8593 155.692 67.7116C155.542 67.5639 155.458 67.3636 155.458 67.1547C155.458 66.9458 155.542 66.7455 155.692 66.5978C155.842 66.4502 156.046 66.3672 156.258 66.3672H167.759C167.971 66.3672 168.175 66.4502 168.325 66.5978C168.475 66.7455 168.559 66.9458 168.559 67.1547C168.559 67.3636 168.475 67.5639 168.325 67.7116C168.175 67.8593 167.971 67.9422 167.759 67.9422Z" fill="#E1EBEE"/>
<path d="M133.028 27.2626H46.908C46.6959 27.2626 46.4925 27.1796 46.3426 27.0319C46.1926 26.8842 46.1084 26.6839 46.1084 26.475C46.1084 26.2662 46.1926 26.0659 46.3426 25.9182C46.4925 25.7705 46.6959 25.6875 46.908 25.6875H133.028C133.24 25.6875 133.444 25.7705 133.594 25.9182C133.744 26.0659 133.828 26.2662 133.828 26.475C133.828 26.6839 133.744 26.8842 133.594 27.0319C133.444 27.1796 133.24 27.2626 133.028 27.2626Z" fill="#E1EBEE"/>
<path d="M133.028 33.2235H46.908C46.6959 33.2235 46.4925 33.1405 46.3426 32.9928C46.1926 32.8451 46.1084 32.6448 46.1084 32.436C46.1084 32.2271 46.1926 32.0268 46.3426 31.8791C46.4925 31.7314 46.6959 31.6484 46.908 31.6484H133.028C133.24 31.6484 133.444 31.7314 133.594 31.8791C133.744 32.0268 133.828 32.2271 133.828 32.436C133.828 32.6448 133.744 32.8451 133.594 32.9928C133.444 33.1405 133.24 33.2235 133.028 33.2235Z" fill="#E1EBEE"/>
<path d="M133.028 39.1844H46.908C46.6959 39.1844 46.4925 39.1015 46.3426 38.9538C46.1926 38.8061 46.1084 38.6058 46.1084 38.3969C46.1084 38.188 46.1926 37.9877 46.3426 37.84C46.4925 37.6923 46.6959 37.6094 46.908 37.6094H133.028C133.24 37.6094 133.444 37.6923 133.594 37.84C133.744 37.9877 133.828 38.188 133.828 38.3969C133.828 38.6058 133.744 38.8061 133.594 38.9538C133.444 39.1015 133.24 39.1844 133.028 39.1844Z" fill="#E1EBEE"/>
<path d="M133.028 45.1454H46.908C46.6959 45.1454 46.4925 45.0624 46.3426 44.9147C46.1926 44.767 46.1084 44.5667 46.1084 44.3578C46.1084 44.149 46.1926 43.9487 46.3426 43.801C46.4925 43.6533 46.6959 43.5703 46.908 43.5703H133.028C133.24 43.5703 133.444 43.6533 133.594 43.801C133.744 43.9487 133.828 44.149 133.828 44.3578C133.828 44.5667 133.744 44.767 133.594 44.9147C133.444 45.0624 133.24 45.1454 133.028 45.1454Z" fill="#E1EBEE"/>
<path d="M133.028 57.0672H46.908C46.6959 57.0672 46.4925 56.9843 46.3426 56.8366C46.1926 56.6889 46.1084 56.4886 46.1084 56.2797C46.1084 56.0708 46.1926 55.8705 46.3426 55.7228C46.4925 55.5752 46.6959 55.4922 46.908 55.4922H133.028C133.24 55.4922 133.444 55.5752 133.594 55.7228C133.744 55.8705 133.828 56.0708 133.828 56.2797C133.828 56.4886 133.744 56.6889 133.594 56.8366C133.444 56.9843 133.24 57.0672 133.028 57.0672Z" fill="#E1EBEE"/>
<path d="M133.028 63.0282H46.908C46.6959 63.0282 46.4925 62.9452 46.3426 62.7975C46.1926 62.6498 46.1084 62.4495 46.1084 62.2407C46.1084 62.0318 46.1926 61.8315 46.3426 61.6838C46.4925 61.5361 46.6959 61.4531 46.908 61.4531H133.028C133.24 61.4531 133.444 61.5361 133.594 61.6838C133.744 61.8315 133.828 62.0318 133.828 62.2407C133.828 62.4495 133.744 62.6498 133.594 62.7975C133.444 62.9452 133.24 63.0282 133.028 63.0282Z" fill="#E1EBEE"/>
<path d="M118.803 21.2782H61.1349C61.0297 21.2783 60.9256 21.2581 60.8285 21.2186C60.7313 21.1791 60.643 21.1211 60.5686 21.048C60.4942 20.9748 60.4352 20.888 60.395 20.7923C60.3547 20.6967 60.334 20.5942 60.334 20.4907C60.334 20.3871 60.3547 20.2846 60.395 20.189C60.4352 20.0934 60.4942 20.0065 60.5686 19.9333C60.643 19.8602 60.7313 19.8022 60.8285 19.7627C60.9256 19.7232 61.0297 19.703 61.1349 19.7031H118.803C118.908 19.703 119.012 19.7232 119.109 19.7627C119.206 19.8022 119.294 19.8602 119.369 19.9333C119.443 20.0065 119.502 20.0934 119.542 20.189C119.583 20.2846 119.603 20.3871 119.603 20.4907C119.603 20.5942 119.583 20.6967 119.542 20.7923C119.502 20.888 119.443 20.9748 119.369 21.048C119.294 21.1211 119.206 21.1791 119.109 21.2186C119.012 21.2581 118.908 21.2783 118.803 21.2782Z" fill="#E1EBEE"/>
<path d="M140.899 95.2103H142.564L143.356 88.8906L140.898 88.8908L140.899 95.2103Z" fill="#FFB6B6"/>
<path d="M140.474 94.672L143.753 94.6719C144.307 94.6719 144.838 94.8886 145.23 95.2743C145.622 95.6601 145.842 96.1832 145.842 96.7287V96.7955L140.474 96.7957L140.474 94.672Z" fill="#2F2E41"/>
<path d="M132.388 95.2103H134.053L134.845 88.8906L132.388 88.8908L132.388 95.2103Z" fill="#FFB6B6"/>
<path d="M131.964 94.672L135.243 94.6719C135.797 94.6719 136.329 94.8886 136.721 95.2743C137.112 95.6601 137.333 96.1832 137.333 96.7287V96.7955L131.964 96.7957L131.964 94.672Z" fill="#2F2E41"/>
<path d="M151.832 24.7914C151.832 24.5164 151.77 24.2448 151.651 23.9961C151.531 23.7475 151.358 23.5279 151.142 23.3532C150.926 23.1786 150.673 23.0532 150.402 22.986C150.131 22.9189 149.849 22.9117 149.575 22.9649C149.3 23.0181 149.042 23.1305 148.817 23.2939C148.592 23.4573 148.407 23.6677 148.275 23.91C148.142 24.1522 148.066 24.4203 148.052 24.6949C148.038 24.9695 148.085 25.2439 148.192 25.4982L144.365 31.4552L141.983 36.1788L143.949 37.8955L145.462 36.3289L150.409 26.5924C150.816 26.4903 151.176 26.2579 151.434 25.9318C151.692 25.6057 151.832 25.2044 151.832 24.7914Z" fill="#FFB6B6"/>
<path d="M131.975 44.3298L128.225 43.7578L127.331 50.4346L122.464 60.7422C122.146 60.9369 121.894 61.2199 121.74 61.5554C121.586 61.8908 121.537 62.2637 121.598 62.6269C121.659 62.9901 121.828 63.3273 122.084 63.5958C122.34 63.8644 122.671 64.0522 123.036 64.1356C123.4 64.2191 123.781 64.1943 124.131 64.0645C124.482 63.9347 124.785 63.7057 125.003 63.4064C125.22 63.1071 125.343 62.751 125.355 62.383C125.368 62.0151 125.269 61.6518 125.071 61.3392L130.161 52.2957L131.975 44.3298Z" fill="#FFB6B6"/>
<path d="M134.052 55.4453C134.052 55.4453 130.753 58.4464 131.173 65.9925L132.096 77.65L131.863 93.9002L135.251 93.6382L138.211 66.4051L141.047 77.5705L140.029 92.4441L143.292 92.5186L146.721 75.7096L145.908 63.2497L144.543 55.4453H134.052Z" fill="#2F2E41"/>
<path d="M137.581 37.875L129.701 40.0461L133.708 51.8585L133.109 56.3774L145.258 56.4548L142.445 47.7205C142.445 47.7205 144.024 44.5253 142.221 42.2857L137.581 37.875Z" fill="#2AFF30"/>
<path d="M136.635 39.7344L137.58 37.8734C137.58 37.8734 137.55 37.4058 139.771 37.1744L142.378 34.625L144.764 36.9649L140.732 42.8359L136.635 39.7344Z" fill="#2AFF30"/>
<path d="M132.853 41.5943C132.853 41.5943 130.017 38.4928 128.441 40.0436C126.865 41.5943 127.673 46.5254 127.673 46.5254L132.581 47.2749L132.853 41.5943Z" fill="#2AFF30"/>
<path d="M134.292 29.6719C139.123 29.6932 139.123 36.9211 134.292 36.9418C129.461 36.9205 129.461 29.6926 134.292 29.6719Z" fill="#FFB6B6"/>
<path d="M134.829 33.0732C135.482 33.4516 136.161 33.8386 136.914 33.9197C137.667 34.0009 138.52 33.6889 138.822 33.0051C138.917 32.7681 138.967 32.5163 138.97 32.2618C139.037 30.963 138.58 29.6909 137.699 28.7213C137.257 28.2461 136.716 27.8702 136.113 27.6193C135.51 27.3685 134.86 27.2485 134.205 27.2676C132.957 27.321 131.803 27.9024 130.696 28.4713C129.677 28.9943 128.602 29.5707 128.048 30.5615C127.228 32.0297 127.826 33.8273 127.985 35.4953C128.097 36.739 127.953 37.9922 127.562 39.18C127.17 40.3678 126.54 41.4658 125.708 42.4085L132.581 43.0494C133.418 43.1274 134.271 43.2045 135.091 43.0243C135.798 42.8688 136.45 42.5276 136.976 42.0369C137.502 41.5462 137.883 40.9244 138.079 40.2376C138.275 39.5508 138.277 38.8247 138.087 38.1364C137.897 37.4481 137.521 36.8235 136.999 36.3288C136.023 35.4045 134.454 34.7501 134.415 33.418" fill="#2F2E41"/>
<path d="M186.054 95.0622H184.23L183.362 88.1406H186.054L186.054 95.0622Z" fill="#9F616A"/>
<path d="M186.52 96.7949L180.64 96.7947V96.7215C180.64 96.1241 180.881 95.5511 181.31 95.1286C181.739 94.7061 182.321 94.4688 182.928 94.4688L186.52 94.4689L186.52 96.7949Z" fill="#2F2E41"/>
<path d="M203.012 95.0622H201.188L200.32 88.1406H203.012L203.012 95.0622Z" fill="#9F616A"/>
<path d="M203.476 96.7949L197.596 96.7947V96.7215C197.596 96.1241 197.837 95.5511 198.266 95.1286C198.695 94.7061 199.277 94.4688 199.884 94.4688L203.476 94.4689L203.476 96.7949Z" fill="#2F2E41"/>
<path d="M185.327 59.9329C185.327 59.9329 183.796 64.0212 184.015 65.7426C184.234 67.464 182.484 79.5138 182.703 80.5896C182.922 81.6655 182.484 87.0449 182.703 87.9055C182.922 88.7662 182.089 89.7943 182.527 90.655C182.964 91.5157 183.578 93.2849 183.578 93.2849L186.42 93.0697L186.858 90.7028C186.858 90.7028 188.17 90.4876 187.951 89.1966C187.732 87.9055 189.044 79.2986 189.044 79.2986L192.762 67.2488L198.01 78.2227C198.01 78.2227 198.228 85.969 198.884 86.8297C199.54 87.6904 198.228 90.0573 198.884 90.918C199.54 91.7787 200.196 93.2849 200.196 93.2849H203.477V91.5635C203.477 91.5635 205.445 90.4876 203.477 87.26L202.147 67.8768L200.835 59.0547L185.327 59.9329Z" fill="#2F2E41"/>
<path d="M193.48 32.8738C195.735 32.8738 197.564 31.0745 197.564 28.8549C197.564 26.6353 195.735 24.8359 193.48 24.8359C191.224 24.8359 189.396 26.6353 189.396 28.8549C189.396 31.0745 191.224 32.8738 193.48 32.8738Z" fill="#A0616A"/>
<path d="M190.004 28.5859C190.292 29.3105 190.581 30.035 190.869 30.7596C191.223 31.6503 191.629 32.6033 192.459 33.1004C193.485 33.7141 194.854 33.4149 195.846 32.75C196.738 32.152 197.423 31.2997 197.808 30.3076C198.194 29.3155 198.262 28.231 198.002 27.1999C197.743 26.1688 197.17 25.2404 196.359 24.5394C195.548 23.8384 194.538 23.3985 193.466 23.2786L193.425 24.0061L192.517 23.2578C192.45 23.3711 192.358 23.468 192.247 23.5411C192.137 23.6143 192.011 23.6618 191.879 23.6802C191.747 23.6985 191.612 23.6872 191.485 23.6471C191.359 23.607 191.243 23.5391 191.146 23.4486C191.385 23.9347 191.11 24.5276 190.712 24.9C190.224 25.3574 188.829 25.9072 188.887 26.725C188.925 27.2707 189.779 28.0204 190.004 28.5859Z" fill="#2F2E41"/>
<path d="M204.722 65.8777C204.862 65.671 204.955 65.4365 204.994 65.1907C205.033 64.9448 205.016 64.6936 204.945 64.4547C204.875 64.2159 204.752 63.9952 204.585 63.8081C204.418 63.6211 204.212 63.4723 203.98 63.3723L204.062 59.4844L201.673 58.8594L201.636 64.3514C201.491 64.7452 201.498 65.1776 201.655 65.5668C201.813 65.956 202.11 66.2749 202.49 66.463C202.87 66.6511 203.307 66.6955 203.719 66.5876C204.13 66.4797 204.487 66.2271 204.722 65.8777Z" fill="#9F616A"/>
<path d="M196.513 35.3603C196.513 35.3603 193.348 33.8031 190.359 34.8412C187.37 35.8793 185.787 37.0905 185.787 37.0905L187.721 47.1256L185.084 60.6211C185.084 60.6211 198.623 59.583 199.854 60.6211C201.084 61.6592 201.084 59.41 201.084 59.41L200.03 46.6065L201.964 38.4746L196.513 35.3603Z" fill="#3F3D56"/>
<path d="M183.155 66.1094C183.349 65.95 183.505 65.7506 183.612 65.5253C183.72 65.3 183.775 65.0544 183.776 64.8056C183.776 64.5568 183.721 64.311 183.614 64.0854C183.508 63.8599 183.352 63.6601 183.158 63.5001L184.346 59.7911L182.232 58.5312L180.629 63.7922C180.378 64.13 180.261 64.547 180.301 64.964C180.341 65.381 180.535 65.7691 180.846 66.0547C181.157 66.3403 181.564 66.5037 181.99 66.5138C182.415 66.5238 182.83 66.38 183.155 66.1094Z" fill="#9F616A"/>
<path d="M187.019 37.0938H185.788C185.788 37.0938 183.854 38.3049 183.854 40.0351C183.854 41.7652 181.041 62.0085 181.041 62.0085L184.03 62.5276L186.668 48.34L188.602 44.5336L187.019 37.0938Z" fill="#3F3D56"/>
<path d="M198.622 38.4766H201.963C201.963 38.4766 203.018 39.5147 203.545 41.9369C204.073 44.3592 204.6 53.8753 204.6 53.8753L204.249 62.5262H201.611L201.26 51.28L199.501 44.0132L198.622 38.4766Z" fill="#3F3D56"/>
<path d="M43.764 49.9859C43.6797 50.0261 43.5987 50.0728 43.5219 50.1255L35.7004 47.117L35.3904 45.1328L32.2861 45.2018L32.4881 48.7669C32.5044 49.0549 32.6152 49.33 32.8039 49.5507C32.9926 49.7715 33.2489 49.9261 33.5345 49.9913L42.8413 52.1158C42.955 52.4529 43.1703 52.748 43.4585 52.9618C43.7468 53.1756 44.0944 53.2979 44.455 53.3126C44.8157 53.3272 45.1723 53.2335 45.4775 53.0438C45.7827 52.8542 46.022 52.5776 46.1635 52.2509C46.3051 51.9241 46.3422 51.5627 46.2699 51.2147C46.1976 50.8667 46.0194 50.5486 45.7589 50.3028C45.4984 50.0569 45.168 49.8948 44.8117 49.8382C44.4553 49.7816 44.0899 49.8331 43.764 49.9859Z" fill="#9F616A"/>
<path d="M32.0229 94.8169L34.0989 94.8167L35.0863 86.9375H32.0225L32.0229 94.8169Z" fill="#9F616A"/>
<path d="M31.4912 94.1486L35.5796 94.1484C36.2706 94.1485 36.9334 94.4187 37.422 94.8996C37.9106 95.3805 38.1851 96.0328 38.1852 96.713V96.7963L31.4913 96.7966L31.4912 94.1486Z" fill="#2F2E41"/>
<path d="M22.0315 94.8169L24.1075 94.8167L25.0951 86.9375H22.0312L22.0315 94.8169Z" fill="#9F616A"/>
<path d="M21.502 94.1486L25.5903 94.1484C26.2813 94.1485 26.9441 94.4187 27.4327 94.8996C27.9213 95.3805 28.1959 96.0328 28.1959 96.713V96.7963L21.5021 96.7966L21.502 94.1486Z" fill="#2F2E41"/>
<path d="M23.2352 34.7413C22.644 32.3391 22.1431 29.6298 23.2581 27.4174C24.0317 25.8823 26.8937 25.3654 28.5344 25.9184C30.175 26.4714 31.3612 27.9718 31.8828 29.6077C32.4045 31.2436 32.3439 33.0064 32.1165 34.7071C29.0992 34.65 26.0819 34.593 23.2352 34.7413Z" fill="#2F2E41"/>
<path d="M28.3261 34.7449C30.2694 34.7449 31.8447 33.1948 31.8447 31.2826C31.8447 29.3704 30.2694 27.8203 28.3261 27.8203C26.3829 27.8203 24.8076 29.3704 24.8076 31.2826C24.8076 33.1948 26.3829 34.7449 28.3261 34.7449Z" fill="#9F616A"/>
<path d="M24.0262 30.5715C24.015 29.9888 24.1229 29.4098 24.3436 28.869C24.5643 28.3281 24.8933 27.8364 25.3109 27.4231C25.7285 27.0098 26.2263 26.6834 26.7747 26.4631C27.323 26.2429 27.9108 26.1333 28.503 26.141C29.0953 26.1487 29.6799 26.2734 30.2222 26.5078C30.7645 26.7422 31.2533 27.0815 31.6597 27.5055C32.0661 27.9295 32.3818 28.4295 32.5879 28.9759C32.794 29.5223 32.8864 30.1039 32.8596 30.6861C29.848 30.6924 26.8365 30.6987 24.0262 30.5715Z" fill="#2F2E41"/>
<path d="M25.4073 47.5156L23.9358 49.9289C23.9358 49.9289 19.9058 57.3664 20.1455 63.5313L21.0373 71.21L20.0586 73.0944L20.7137 76.4098L19.4971 78.7847L21.6964 90.2504L21.79 92.7369H25.3464L25.1592 90.2043L26.6567 79.0344L29.1836 67.1083L30.4938 77.4033L30.0259 79.9819L30.6342 82.1461L31.4765 88.8229L31.5701 92.0462L34.799 92.4146L36.0156 80.4884L36.7176 74.7981L32.9558 49.568L25.4073 47.5156Z" fill="#2F2E41"/>
<path d="M24.9407 35.8672L22.7499 36.7827L21.5195 41.7935L24.1102 48.3221L23.1417 51.584C26.0733 56.5187 29.702 57.2357 33.9719 54.0711C33.0682 51.5744 33.1988 49.0071 34.0993 46.3873C34.0993 46.3873 36.3455 44.3291 34.7764 41.6533L33.2797 37.6556L31.4266 36.7439L24.9407 35.8672Z" fill="#E1EBEE"/>
<path d="M32.8486 38.526L33.346 37.6172C33.346 37.6172 34.6575 37.8113 35.1932 39.365C35.7288 40.9186 35.8681 47.195 35.8681 47.195L33.0618 47.3348L32.8486 38.526Z" fill="#E1EBEE"/>
<path d="M101.367 38.4477L17.9718 59.5967C17.7667 59.6479 17.5494 59.6171 17.3675 59.5109C17.1855 59.4048 17.0537 59.232 17.0009 59.0304C16.9481 58.8289 16.9786 58.6149 17.0858 58.4355C17.193 58.256 17.368 58.1257 17.5727 58.0729L100.968 36.9239C101.07 36.8978 101.176 36.8917 101.28 36.9059C101.384 36.9202 101.485 36.9546 101.575 37.007C101.666 37.0595 101.745 37.1291 101.809 37.2118C101.872 37.2945 101.918 37.3886 101.944 37.4889C101.97 37.5891 101.976 37.6935 101.962 37.796C101.947 37.8985 101.912 37.9971 101.858 38.0862C101.804 38.1752 101.733 38.253 101.649 38.3151C101.565 38.3771 101.469 38.4222 101.367 38.4477Z" fill="#2AFF30"/>
<path d="M21.8546 59.8262C22.0926 59.7096 22.3019 59.5431 22.4675 59.3383C22.6331 59.1335 22.751 58.8955 22.813 58.6411C22.8751 58.3866 22.8796 58.1218 22.8264 57.8654C22.7732 57.6091 22.6635 57.3673 22.5051 57.1571L23.8653 44.0703H20.9257L19.8447 56.8489C19.5035 57.1342 19.2806 57.5328 19.2181 57.9691C19.1556 58.4053 19.2579 58.849 19.5057 59.216C19.7534 59.583 20.1294 59.8478 20.5623 59.9603C20.9952 60.0727 21.455 60.025 21.8546 59.8262Z" fill="#9F616A"/>
<path d="M24.5402 38.257L23.51 36.8238C23.51 36.8238 21.6983 35.6152 20.7747 38.3968C19.8511 41.1784 19.9932 46.3317 19.9932 46.3317L23.51 47.7648L24.5402 38.257Z" fill="#E1EBEE"/>
<path d="M80.1802 96.9265H0.590732C0.535329 96.9265 0.482196 96.9049 0.44302 96.8664C0.403844 96.8278 0.381836 96.7756 0.381836 96.7211C0.381836 96.6666 0.403844 96.6143 0.44302 96.5758C0.482196 96.5373 0.535329 96.5156 0.590732 96.5156H80.1802C80.2356 96.5156 80.2888 96.5373 80.3279 96.5758C80.3671 96.6143 80.3891 96.6666 80.3891 96.7211C80.3891 96.7756 80.3671 96.8278 80.3279 96.8664C80.2888 96.9049 80.2356 96.9265 80.1802 96.9265Z" fill="#E1EBEE"/>
<path d="M205.518 96.9265H125.929C125.873 96.9265 125.82 96.9049 125.781 96.8664C125.742 96.8278 125.72 96.7756 125.72 96.7211C125.72 96.6666 125.742 96.6143 125.781 96.5758C125.82 96.5373 125.873 96.5156 125.929 96.5156H205.518C205.574 96.5156 205.627 96.5373 205.666 96.5758C205.705 96.6143 205.727 96.6666 205.727 96.7211C205.727 96.7756 205.705 96.8278 205.666 96.8664C205.627 96.9049 205.574 96.9265 205.518 96.9265Z" fill="#E1EBEE"/>
</svg>
