<svg width="91" height="102" viewBox="0 0 91 102" fill="none" xmlns="http://www.w3.org/2000/svg">
<g clip-path="url(#clip0_688_3672)">
<path d="M66.0664 57.8828V86.0596L70.0258 93.7406L70.3272 94.3249H85.9501L86.2658 57.8828H66.0664Z" fill="white"/>
<path opacity="0.1" d="M66.0664 57.8828V86.0596L70.0258 93.7406L70.2688 57.8828H66.0664Z" fill="black"/>
<path d="M28.3497 57.1328V85.3097L24.3903 92.9908L24.089 93.5749H8.46606L8.15039 57.1328H28.3497Z" fill="white"/>
<path opacity="0.1" d="M28.3509 57.1328V85.3097L24.3914 92.9908L24.1484 57.1328H28.3509Z" fill="black"/>
<path d="M91 56.5652V58.2557H6.09961V55.8137L13.99 50.9297H84.0565L91 56.5652Z" fill="white"/>
<path opacity="0.1" d="M91 56.564V58.2545H6.09961V55.8125L91 56.564Z" fill="black"/>
<path d="M18.2503 65.018H14.4628L12.8848 63.7031H19.9861L18.2503 65.018Z" fill="#3F3D56"/>
<path d="M18.2503 70.4633H14.4628L12.8848 69.1484H19.9861L18.2503 70.4633Z" fill="#3F3D56"/>
<path d="M18.2503 78.1666H14.4628L12.8848 76.8516H19.9861L18.2503 78.1666Z" fill="#3F3D56"/>
<path d="M18.2503 85.8696H14.4628L12.8848 84.5547H19.9861L18.2503 85.8696Z" fill="#3F3D56"/>
<path d="M76.1655 65.768H79.953L81.5311 64.4531H74.4297L76.1655 65.768Z" fill="#3F3D56"/>
<path d="M76.1655 71.2211H79.953L81.5311 69.9062H74.4297L76.1655 71.2211Z" fill="#3F3D56"/>
<path d="M76.1655 78.9165H79.953L81.5311 77.6016H74.4297L76.1655 78.9165Z" fill="#3F3D56"/>
<path d="M76.1655 86.6196H79.953L81.5311 85.3047H74.4297L76.1655 86.6196Z" fill="#3F3D56"/>
<path d="M78.7446 18.3438H46.8601C46.7018 18.3437 46.545 18.3808 46.3987 18.453C46.2523 18.5251 46.1194 18.6308 46.0074 18.7641C45.8955 18.8974 45.8066 19.0556 45.746 19.2298C45.6855 19.404 45.6543 19.5906 45.6543 19.7791V45.3457C45.6543 45.5342 45.6855 45.7208 45.746 45.895C45.8066 46.0692 45.8955 46.2274 46.0074 46.3607C46.1194 46.494 46.2523 46.5997 46.3987 46.6718C46.545 46.744 46.7018 46.7811 46.8601 46.781H58.9638L58.5103 50.2273C58.5103 50.2273 55.9189 51.866 57.741 51.9142C59.5631 51.9624 68.1472 51.9142 68.1472 51.9142C68.1472 51.9142 69.8074 51.9142 67.1755 50.1791L66.7489 46.781H78.7446C78.903 46.7811 79.0598 46.744 79.2061 46.6718C79.3524 46.5997 79.4854 46.494 79.5973 46.3607C79.7093 46.2274 79.7981 46.0692 79.8587 45.895C79.9193 45.7208 79.9505 45.5342 79.9505 45.3457V19.7791C79.9505 19.5906 79.9193 19.404 79.8587 19.2298C79.7981 19.0556 79.7093 18.8974 79.5973 18.7641C79.4854 18.6308 79.3524 18.5251 79.2061 18.453C79.0598 18.3808 78.903 18.3437 78.7446 18.3438Z" fill="#3F3D56"/>
<path d="M78.7968 19.8672H46.8086V41.1711H78.7968V19.8672Z" fill="#2B7AEF"/>
<path d="M62.8021 19.4351C62.9139 19.4351 63.0045 19.3272 63.0045 19.1941C63.0045 19.061 62.9139 18.9531 62.8021 18.9531C62.6903 18.9531 62.5996 19.061 62.5996 19.1941C62.5996 19.3272 62.6903 19.4351 62.8021 19.4351Z" fill="#2B7AEF"/>
<path d="M62.8025 45.7456C63.2274 45.7456 63.5719 45.3356 63.5719 44.8298C63.5719 44.3241 63.2274 43.9141 62.8025 43.9141C62.3776 43.9141 62.0332 44.3241 62.0332 44.8298C62.0332 45.3356 62.3776 45.7456 62.8025 45.7456Z" fill="#2B7AEF"/>
<path d="M61.6046 54.5164V54.9984H39.8203V54.6128L39.8503 54.5164L40.3872 52.7812H61.1592L61.6046 54.5164Z" fill="#3F3D56"/>
<path d="M69.9869 54.0502C69.9472 54.2522 69.7974 54.4652 69.4589 54.6667C68.2442 55.3897 65.7742 54.4739 65.7742 54.4739C65.7742 54.4739 63.8711 54.0883 63.8711 53.0761C63.9245 53.0326 63.9803 52.9931 64.0379 52.9581C64.5486 52.6364 66.242 51.8428 69.2445 52.9917C69.4657 53.0743 69.6632 53.2284 69.8152 53.4369C69.8825 53.5157 69.9332 53.6123 69.963 53.719C69.9929 53.8256 70.0011 53.9391 69.9869 54.0502Z" fill="#3F3D56"/>
<path opacity="0.1" d="M69.9881 54.0502C68.5012 54.7284 67.1759 54.779 65.8158 53.6545C65.3015 53.2019 64.6787 52.9578 64.0391 52.9581C64.5498 52.6364 66.2431 51.8428 69.2456 52.9917C69.4668 53.0743 69.6644 53.2284 69.8163 53.4369C69.8837 53.5157 69.9343 53.6123 69.9642 53.719C69.994 53.8256 70.0022 53.9391 69.9881 54.0502Z" fill="black"/>
<path d="M68.124 53.6512C68.4148 53.6512 68.6504 53.5649 68.6504 53.4584C68.6504 53.3519 68.4148 53.2656 68.124 53.2656C67.8333 53.2656 67.5977 53.3519 67.5977 53.4584C67.5977 53.5649 67.8333 53.6512 68.124 53.6512Z" fill="#2B7AEF"/>
<path opacity="0.1" d="M61.6046 54.5234V55.0055H39.8203V54.6198L39.8503 54.5234H61.6046Z" fill="black"/>
<path d="M12.1133 -0.00344234C11.8922 -0.0250498 11.6709 0.0338191 11.4785 0.165364C11.2897 0.31932 11.1706 0.589034 11.0491 0.84002C10.5846 1.8111 9.95563 2.65674 9.20218 3.3234C8.65339 3.80196 7.95568 4.39866 8.04958 5.281C8.09911 5.57239 8.18954 5.85175 8.31708 6.10736C8.82334 7.32387 10.2049 8.26398 10.069 9.65211C10.572 8.64977 9.89918 8.15413 10.4022 7.1518C10.6417 6.67445 11.0578 6.13562 11.4195 6.4354C11.5406 6.53577 11.6201 6.71579 11.7462 6.80386C12.047 7.01401 12.3671 6.61226 12.6334 6.32769C13.5517 5.34641 14.8576 5.60348 16.0004 5.90922C16.5399 6.05356 17.1324 6.24294 17.4514 6.85671C17.8707 7.66368 17.053 8.53522 16.8464 9.44759C16.8295 9.52533 16.8287 9.60678 16.8441 9.68497C16.8594 9.76315 16.8904 9.83576 16.9345 9.89656C16.9785 9.95737 17.0343 10.0046 17.097 10.0341C17.1597 10.0637 17.2275 10.0747 17.2946 10.0663C17.6375 10.026 18.0437 9.99304 18.064 9.81393C18.4954 9.83221 19.024 9.77405 19.2088 9.23933C19.2653 9.02777 19.2952 8.80741 19.2974 8.58543C19.3653 7.68723 19.6855 6.86779 19.8977 6.01291C20.1098 5.15803 20.2021 4.15617 19.8441 3.39822C19.7163 3.14604 19.5582 2.91742 19.375 2.71959C17.3432 0.379066 14.6718 -0.00691655 12.1133 -0.00344234Z" fill="#2F2E41"/>
<path d="M10.5092 11.4056C10.5092 11.4056 10.9511 15.7888 9.33084 16.1395C7.71061 16.4902 10.8038 22.4514 10.8038 22.4514L18.1685 23.5034L16.4009 16.4902C16.4009 16.4902 15.2226 15.9642 15.9591 12.4576C16.6955 8.95094 10.5092 11.4056 10.5092 11.4056Z" fill="#FFB8B8"/>
<path d="M6.01758 86.7109L6.60681 96.3542H9.69987L8.81621 86.7109H6.01758Z" fill="#FFB8B8"/>
<path d="M28.7012 68.4756L29.143 76.5408L32.5309 74.7875L31.2051 68.125L28.7012 68.4756Z" fill="#FFB8B8"/>
<path d="M3.80859 49.8957C3.80859 49.8957 3.95588 60.0649 4.83965 63.3962C5.72342 66.7275 5.57612 66.9028 5.42883 67.4288C5.28154 67.9548 5.13424 67.6041 5.13424 68.4808C5.13424 69.3574 4.83965 83.2085 5.13424 84.4359C5.42883 85.6632 4.25048 87.7671 5.13424 87.9425C6.018 88.1178 10.1422 87.9425 10.2895 86.8905C10.4368 85.8385 9.11117 85.4878 9.70034 84.7865C10.2895 84.0852 11.1733 69.7081 11.1733 69.7081L13.2354 59.7142L17.065 54.4543H25.1662L27.6702 66.0261C27.6702 66.0261 26.6391 69.3574 27.3756 69.3574C28.112 69.3574 32.5308 70.4094 32.5308 66.5521C32.5308 62.6948 31.0579 51.2984 30.7633 50.9477C30.4687 50.597 30.9106 49.3697 30.4687 48.8437C30.0268 48.3177 24.8716 44.6358 22.9568 43.9345C21.0419 43.2332 18.3558 42.3984 18.3558 42.3984L3.80859 49.8957Z" fill="#2F2E41"/>
<path d="M32.5312 73.3903C32.5312 73.3903 30.3218 72.5136 29.2907 75.1436C28.2597 77.7735 28.7016 78.4749 28.7016 78.4749C28.7016 78.4749 32.0893 79.8775 32.6785 79.1762C32.9348 78.871 33.7488 78.765 34.5866 78.7427C35.8627 78.7086 36.2022 76.5596 34.9971 76.0591C34.9611 76.0442 34.9247 76.0312 34.8879 76.0202C33.7095 75.6696 32.5312 73.3903 32.5312 73.3903Z" fill="#2F2E41"/>
<path d="M13.8231 14.3011C16.2635 14.3011 18.2419 11.9461 18.2419 9.04117C18.2419 6.1362 16.2635 3.78125 13.8231 3.78125C11.3827 3.78125 9.4043 6.1362 9.4043 9.04117C9.4043 11.9461 11.3827 14.3011 13.8231 14.3011Z" fill="#FFB8B8"/>
<path d="M8.07882 18.3335C8.07882 18.3335 15.2962 20.0868 17.0637 17.2815C18.8313 14.4762 19.5677 25.1714 19.5677 25.1714L20.4515 36.3926L19.1258 42.5291C19.1258 42.5291 12.203 49.1917 9.99364 49.7177C7.78424 50.2437 4.39648 50.5943 4.39648 50.5943C4.39648 50.5943 5.42755 31.1326 5.42755 30.782C5.42755 30.4313 8.07882 18.3335 8.07882 18.3335Z" fill="#6C63FF"/>
<path d="M10.275 15.0465C10.275 15.0465 8.66916 13.9515 8.22728 15.0035C7.7854 16.0555 3.66118 18.6855 3.2193 18.6855C2.77742 18.6855 4.10306 33.2379 3.51389 34.9912C2.92471 36.7445 0.126138 49.5437 1.74637 50.5956C3.3666 51.6476 2.18825 49.5437 3.80848 52.1736C5.42871 54.8036 13.3826 54.8036 13.8244 53.7516C14.2663 52.6996 10.2894 44.8097 11.0259 37.4459C11.7623 30.082 12.9407 19.9128 11.9096 18.5101C10.8786 17.1075 10.275 15.0465 10.275 15.0465Z" fill="#2F2E41"/>
<path d="M15.5918 16.2311L15.797 15.3906C15.797 15.3906 21.9254 17.8091 22.22 19.387C22.5146 20.965 22.3673 32.0108 21.3362 32.8875C20.3052 33.7641 18.8323 35.1668 19.8633 37.2708C20.8944 39.3747 22.0727 41.654 22.9565 41.8293C23.8402 42.0047 25.4605 43.232 25.0186 44.4593C24.5767 45.6866 19.2741 43.4073 19.2741 43.4073C19.2741 43.4073 15.7391 40.2514 15.8864 35.3421C16.0337 30.4328 15.5918 16.2311 15.5918 16.2311Z" fill="#2F2E41"/>
<path d="M20.7474 36.9219L17.2124 44.8118C17.2124 44.8118 12.0571 51.1237 15.003 51.825C17.9488 52.5263 19.5691 46.0391 19.5691 46.0391L23.3987 39.5518L20.7474 36.9219Z" fill="#FFB8B8"/>
<path d="M12.3268 1.37826C12.1486 1.36255 11.9702 1.40374 11.81 1.49758C11.6651 1.62355 11.5457 1.78646 11.4604 1.97442C11.0676 2.67787 10.5554 3.27575 9.95695 3.72965C9.51021 4.0679 8.94225 4.48964 9.01869 5.11327C9.06018 5.32237 9.13402 5.52043 9.23644 5.69734C9.64999 6.56585 9.81462 7.57107 9.70542 8.56089L10.9338 6.43554C11.1288 6.09816 11.4675 5.71732 11.7619 5.9292C11.8605 6.00014 11.9252 6.12738 12.0279 6.18963C12.2728 6.33816 12.5333 6.0542 12.7501 5.85307C13.4977 5.1595 14.5607 5.3412 15.491 5.5573C15.9301 5.65932 16.4125 5.79317 16.6721 6.22697C17.1036 6.94788 16.6531 7.98953 16.9049 8.82235C16.9753 8.76361 17.0352 8.68862 17.0809 8.60184C17.1266 8.51505 17.1571 8.41823 17.1708 8.31711C17.522 8.33003 17.9523 8.28893 18.1028 7.91099C18.1485 7.76288 18.1729 7.60662 18.1749 7.44882C18.2301 6.81398 18.4908 6.23481 18.6635 5.63058C18.8362 5.02636 18.9113 4.31824 18.6199 3.78253C18.5133 3.60102 18.3846 3.43937 18.238 3.30288C16.5841 1.64862 14.4095 1.37581 12.3268 1.37826Z" fill="#2F2E41"/>
<path d="M20.7467 18.6875L22.1191 19.1211C22.1191 19.1211 25.3128 28.8567 24.5763 35.5192C23.8399 42.1818 23.398 40.7792 23.398 40.7792C23.398 40.7792 22.2196 37.6232 19.5684 38.3245L20.7467 18.6875Z" fill="#2F2E41"/>
<path d="M6.22229 95.0827C5.8671 95.6572 5.93831 96.4785 5.62368 97.0857C5.35095 97.6119 4.83697 97.8879 4.49583 98.3542C4.38698 98.5091 4.28995 98.6753 4.20587 98.8507C3.88942 99.4817 3.63221 100.29 3.94387 100.925C4.19458 101.435 4.72156 101.634 5.20486 101.77C5.81573 101.942 6.45042 102.08 7.06834 101.948C7.68626 101.817 8.29016 101.367 8.51048 100.667C8.55378 100.491 8.60526 100.318 8.66467 100.149C8.99959 99.3642 10.0501 99.3557 10.3929 98.5757C10.6327 98.0298 10.4122 97.3699 10.1918 96.8126L9.51865 95.1102C9.29525 94.5452 8.38962 94.8701 7.9175 94.7347C7.30175 94.5582 6.66526 94.3636 6.22229 95.0827Z" fill="#2F2E41"/>
<path d="M1.30469 40.4226L7.49102 51.8191C7.49102 51.8191 11.3206 57.605 12.499 54.9751C13.6773 52.3451 8.37478 47.9618 8.37478 47.9618L4.39785 39.1953L1.30469 40.4226Z" fill="#FFB8B8"/>
<path d="M4.39724 19.0382L3.21889 18.6875C3.21889 18.6875 0.862194 19.5642 0.273021 23.2461C-0.316153 26.928 0.125726 41.6558 0.862194 41.8311C1.59866 42.0065 4.4996 39.2667 4.96395 39.8476C5.4283 40.4285 3.95536 37.4479 4.39723 35.8699C4.83911 34.2919 4.39724 19.0382 4.39724 19.0382Z" fill="#2F2E41"/>
<path d="M59.7757 26.8594H55.9688V27.9503H59.7757V26.8594Z" fill="#0096FF"/>
<path d="M72.9586 26.8594H71.6191V27.9503H72.9586V26.8594Z" fill="#0096FF"/>
<path d="M75.6364 26.8594H74.2969V27.9503H75.6364V26.8594Z" fill="#0096FF"/>
<path d="M70.2077 26.8594H61.1133V27.9503H70.2077V26.8594Z" fill="#0096FF"/>
<path d="M54.9808 33.9062H51.1738V34.9972H54.9808V33.9062Z" fill="#0096FF"/>
<path d="M68.1637 33.9062H66.8242V34.9972H68.1637V33.9062Z" fill="#0096FF"/>
<path d="M70.8434 33.9062H69.5039V34.9972H70.8434V33.9062Z" fill="#0096FF"/>
<path d="M65.4147 33.9062H56.3203V34.9972H65.4147V33.9062Z" fill="#0096FF"/>
<path d="M70.7015 29.2969H66.8945V30.3878H70.7015V29.2969Z" fill="#0096FF"/>
<path d="M75.848 29.2969H72.041V30.3878H75.848V29.2969Z" fill="#0096FF"/>
<path d="M52.5133 29.2969H51.1738V30.3878H52.5133V29.2969Z" fill="#0096FF"/>
<path d="M55.193 29.2969H53.8535V30.3878H55.193V29.2969Z" fill="#0096FF"/>
<path d="M65.6257 29.2969H56.5312V30.3878H65.6257V29.2969Z" fill="#0096FF"/>
<path d="M62.807 31.6406H59V32.7316H62.807V31.6406Z" fill="#0096FF"/>
<path d="M57.6605 31.6406H53.8535V32.7316H57.6605V31.6406Z" fill="#0096FF"/>
<path d="M52.5133 31.6406H51.1738V32.7316H52.5133V31.6406Z" fill="#0096FF"/>
<path d="M75.8493 31.6406H74.5098V32.7316H75.8493V31.6406Z" fill="#0096FF"/>
<path d="M73.1706 31.6406H64.0762V32.7316H73.1706V31.6406Z" fill="#0096FF"/>
</g>
<defs>
<clipPath id="clip0_688_3672">
<rect width="91" height="102" fill="white"/>
</clipPath>
</defs>
</svg>
