<svg width="350" height="351" viewBox="0 0 350 351" fill="none" xmlns="http://www.w3.org/2000/svg">
<path d="M178.752 350.24C189.279 350.24 197.813 338.131 197.813 323.193C197.813 308.255 189.279 296.146 178.752 296.146C168.225 296.146 159.691 308.255 159.691 323.193C159.691 338.131 168.225 350.24 178.752 350.24Z" fill="#F9A826"/>
<path d="M292.619 348.719C303.282 344.175 314.619 339.436 323.076 328.633C330.633 318.98 335.735 304.239 332.604 289.761C329.48 275.313 320.122 265.68 310.46 260.888C304.98 258.171 299.247 256.663 293.516 255.479C287.286 254.191 281.029 253.136 274.774 252.121C249.449 248.011 224.029 245.5 198.514 244.588C185.923 244.139 173.335 244.149 160.743 244.409C149.498 244.64 137.654 244.635 127.222 237.852C119.109 232.578 111.746 222.983 109.486 210.374C106.877 195.819 111.689 180.996 118.594 170.455C122.233 164.898 126.486 160.222 130.874 155.922C135.634 151.257 140.56 146.922 145.592 142.875C155.504 134.91 165.867 128.131 176.573 122.609C181.854 119.884 187.214 117.533 192.62 115.364C197.185 113.533 201.764 111.699 206.176 109.203C214.705 104.38 222.817 96.2091 224.986 82.814C227.041 70.1186 223.576 56.3369 217.5 46.9057C210.472 35.9946 199.874 31.2115 189.713 30.4376C178.307 29.5687 167.163 33.6197 156.441 38.7609C145.006 44.2444 133.818 50.5495 122.141 54.9911C110.562 59.3912 98.7591 62.5044 86.8393 64.3026C81.0041 65.1843 74.9926 66.1799 69.1227 65.5049C64.2032 64.9392 59.3088 62.8862 55.6832 57.9319C52.5745 53.6839 50.7226 47.8457 51.3593 41.6847C51.4749 40.5656 52.6729 41.0414 52.5579 42.1536C51.7829 49.6533 55.3756 56.5642 59.8027 60.1042C64.9193 64.1956 71.1455 64.2011 76.842 63.7332C89.1937 62.6746 101.462 60.1581 113.519 56.2097C125.367 52.3698 136.791 46.8806 148.203 41.0168C159.041 35.4477 170.121 30.0123 181.7 28.806C191.747 27.7594 202.315 29.8363 211.068 37.2866C218.76 43.8343 224.416 54.7538 226.218 67.2842C227.98 79.5287 225.54 91.8529 219.009 100.398C212.246 109.244 202.972 113.027 194.331 116.51C183.37 120.929 172.644 126.093 162.262 132.799C151.739 139.577 141.646 147.629 132.096 156.864C122.878 165.803 113.781 177.05 110.866 192.996C109.508 200.424 109.759 208.303 112.031 215.319C114.051 221.557 117.379 226.805 121.255 230.852C130.504 240.509 142.161 242.492 153.333 242.689C165.88 242.911 178.428 242.31 190.98 242.602C216.559 243.198 242.087 245.408 267.562 249.231C273.945 250.189 280.32 251.249 286.688 252.41C292.415 253.454 298.161 254.492 303.792 256.346C313.804 259.644 323.546 265.984 329.769 278.03C332.531 283.251 334.242 289.438 334.719 295.931C335.155 302.707 333.986 309.496 331.827 315.523C327.048 328.865 318.098 337.351 308.592 342.926C303.501 345.912 298.22 348.174 292.95 350.42C292.182 350.748 291.854 349.046 292.619 348.719Z" fill="#E1EBEE"/>
<path d="M52.1634 55.9486C57.6557 55.9486 62.1081 49.6307 62.1081 41.8371C62.1081 34.0435 57.6557 27.7256 52.1634 27.7256C46.6711 27.7256 42.2188 34.0435 42.2188 41.8371C42.2188 49.6307 46.6711 55.9486 52.1634 55.9486Z" fill="#E1EBEE"/>
<path d="M121.156 82.7045C126.648 82.7045 131.1 76.3865 131.1 68.593C131.1 60.7994 126.648 54.4814 121.156 54.4814C115.663 54.4814 111.211 60.7994 111.211 68.593C111.211 76.3865 115.663 82.7045 121.156 82.7045Z" fill="#E1EBEE"/>
<path d="M179.581 29.1996C185.074 29.1996 189.526 22.8817 189.526 15.0881C189.526 7.2945 185.074 0.976562 179.581 0.976562C174.089 0.976562 169.637 7.2945 169.637 15.0881C169.637 22.8817 174.089 29.1996 179.581 29.1996Z" fill="#E1EBEE"/>
<path d="M216.046 89.1713C221.539 89.1713 225.991 82.8533 225.991 75.0598C225.991 67.2662 221.539 60.9482 216.046 60.9482C210.554 60.9482 206.102 67.2662 206.102 75.0598C206.102 82.8533 210.554 89.1713 216.046 89.1713Z" fill="#E1EBEE"/>
<path d="M166.734 158.55C172.226 158.55 176.678 152.232 176.678 144.438C176.678 136.645 172.226 130.327 166.734 130.327C161.241 130.327 156.789 136.645 156.789 144.438C156.789 152.232 161.241 158.55 166.734 158.55Z" fill="#E1EBEE"/>
<path d="M104.167 192.066C109.66 192.066 114.112 185.748 114.112 177.955C114.112 170.161 109.66 163.843 104.167 163.843C98.675 163.843 94.2227 170.161 94.2227 177.955C94.2227 185.748 98.675 192.066 104.167 192.066Z" fill="#E1EBEE"/>
<path d="M170.464 244.402C175.957 244.402 180.409 238.084 180.409 230.291C180.409 222.497 175.957 216.179 170.464 216.179C164.972 216.179 160.52 222.497 160.52 230.291C160.52 238.084 164.972 244.402 170.464 244.402Z" fill="#E1EBEE"/>
<path d="M241.734 273.804C247.226 273.804 251.678 267.486 251.678 259.692C251.678 251.899 247.226 245.581 241.734 245.581C236.241 245.581 231.789 251.899 231.789 259.692C231.789 267.486 236.241 273.804 241.734 273.804Z" fill="#E1EBEE"/>
<path d="M325.019 267.337C330.511 267.337 334.964 261.019 334.964 253.225C334.964 245.432 330.511 239.114 325.019 239.114C319.527 239.114 315.074 245.432 315.074 253.225C315.074 261.019 319.527 267.337 325.019 267.337Z" fill="#E1EBEE"/>
<path d="M176.711 40.962C146.921 41.2606 122.53 75.6116 122.107 117.879C122.103 118.27 122.101 121.014 122.102 124.602C122.102 129.865 123.575 134.911 126.197 138.632C128.819 142.353 132.375 144.444 136.084 144.444C137.922 144.444 139.742 143.929 141.44 142.93C143.138 141.931 144.681 140.467 145.98 138.621C147.279 136.776 148.31 134.585 149.012 132.175C149.714 129.764 150.075 127.181 150.073 124.572C150.072 122.131 150.071 120.441 150.071 120.337C150.07 113.805 151.267 107.385 153.545 101.708C155.823 96.0314 159.104 91.2941 163.063 87.962C167.023 84.63 171.526 82.8179 176.128 82.7042C180.731 82.5904 185.276 84.1789 189.315 87.3133C193.354 90.4477 196.748 95.02 199.164 100.581C201.58 106.141 202.934 112.498 203.094 119.027C203.253 125.555 202.212 132.03 200.073 137.815C197.934 143.599 194.77 148.494 190.894 152.017L190.899 152.026C190.899 152.026 170.998 170.206 164.93 195.145L164.936 195.147C163.869 200.256 163.328 205.557 163.33 210.886C163.33 213.077 163.421 232.242 163.597 247.798C163.658 253.165 165.204 258.283 167.901 262.048C170.598 265.812 174.229 267.921 178.012 267.92C179.913 267.92 181.795 267.387 183.55 266.35C185.305 265.314 186.899 263.796 188.239 261.883C189.579 259.97 190.639 257.699 191.358 255.203C192.077 252.706 192.441 250.032 192.43 247.335C192.369 233.088 192.336 216.5 192.336 215.296C192.336 199.982 202.747 184.724 211.299 174.774C221.146 163.316 228.233 147.702 231.079 130.088C231.709 126.462 232.056 122.748 232.115 119.014C232.115 108.717 230.679 98.5207 227.889 89.014C225.1 79.5073 221.013 70.8778 215.863 63.6226C210.713 56.3673 204.602 50.6299 197.882 46.7407C191.163 42.8516 183.967 40.8876 176.711 40.962Z" fill="#F9A826"/>
<path d="M349.507 350.977H0.491947C0.361344 350.976 0.236222 350.902 0.144005 350.771C0.051788 350.64 0 350.462 0 350.276C0 350.091 0.051788 349.913 0.144005 349.782C0.236222 349.651 0.361344 349.577 0.491947 349.576H349.507C349.637 349.576 349.763 349.65 349.855 349.781C349.948 349.913 350 350.091 350 350.276C350 350.462 349.948 350.64 349.855 350.772C349.763 350.903 349.637 350.977 349.507 350.977Z" fill="#3F3D56"/>
<path d="M260.404 161.49C267.269 161.49 272.834 153.593 272.834 143.851C272.834 134.109 267.269 126.211 260.404 126.211C253.538 126.211 247.973 134.109 247.973 143.851C247.973 153.593 253.538 161.49 260.404 161.49Z" fill="#2F2E41"/>
<path d="M237.434 343.262H232.354L229.938 315.458H237.435L237.434 343.262Z" fill="#A0616A"/>
<path d="M228.727 341.195H238.524V349.949H222.559C222.559 348.799 222.718 347.661 223.028 346.599C223.338 345.537 223.793 344.572 224.365 343.759C224.938 342.946 225.618 342.301 226.367 341.862C227.115 341.422 227.917 341.195 228.727 341.195Z" fill="#2F2E41"/>
<path d="M276.797 343.262H271.718L269.301 315.458H276.799L276.797 343.262Z" fill="#A0616A"/>
<path d="M268.09 341.195H277.888V349.949H261.922C261.922 348.799 262.081 347.661 262.391 346.599C262.701 345.537 263.156 344.572 263.729 343.759C264.301 342.946 264.981 342.301 265.73 341.862C266.478 341.422 267.28 341.195 268.09 341.195Z" fill="#2F2E41"/>
<path d="M258.517 161.595C264.138 161.595 268.694 155.13 268.694 147.154C268.694 139.178 264.138 132.712 258.517 132.712C252.896 132.712 248.34 139.178 248.34 147.154C248.34 155.13 252.896 161.595 258.517 161.595Z" fill="#A0616A"/>
<path d="M264.583 208.186L269.136 193.339C270.242 189.856 270.559 185.972 270.044 182.223C269.528 178.474 268.205 175.044 266.257 172.407C265.857 171.846 265.432 171.321 264.984 170.837C262.738 168.343 259.969 166.983 257.116 166.974C255.198 166.985 253.304 167.582 251.563 168.726C251.414 168.82 251.269 168.92 251.12 169.02C250.834 169.214 250.552 169.426 250.279 169.644C248.495 171.097 246.977 173.125 245.847 175.564C244.717 178.003 244.007 180.784 243.773 183.685L241.764 207.58C241.258 209.456 223.225 277.191 229.532 328.904C229.599 329.456 229.789 329.963 230.073 330.352C230.358 330.74 230.723 330.989 231.115 331.062L237.508 332.297C237.975 332.387 238.449 332.223 238.834 331.838C239.219 331.453 239.487 330.875 239.584 330.221L250.312 257.658C250.379 257.207 250.55 256.801 250.799 256.505C251.048 256.209 251.359 256.039 251.683 256.024C252.008 256.008 252.327 256.147 252.589 256.419C252.851 256.691 253.041 257.08 253.13 257.523L268.287 333.831C268.395 334.386 268.628 334.875 268.951 335.223C269.273 335.571 269.668 335.76 270.073 335.76C270.194 335.759 270.314 335.743 270.433 335.713L278.244 333.578C278.698 333.458 279.104 333.101 279.382 332.578C279.661 332.055 279.791 331.403 279.748 330.75C278.601 312.587 272.501 221.609 264.583 208.186Z" fill="#2F2E41"/>
<path d="M218.966 159.17C218.895 160.029 218.958 160.899 219.15 161.719C219.342 162.539 219.658 163.29 220.077 163.918C220.495 164.546 221.006 165.036 221.572 165.354C222.139 165.672 222.747 165.81 223.355 165.757L229.044 185.156L233.347 176.105L227.286 159.071C227.156 157.627 226.658 156.301 225.886 155.344C225.113 154.386 224.12 153.864 223.095 153.877C222.069 153.889 221.082 154.434 220.321 155.41C219.56 156.386 219.078 157.724 218.966 159.17Z" fill="#A0616A"/>
<path d="M257.952 227.714C258.557 227.612 259.138 227.322 259.656 226.866C260.173 226.41 260.614 225.799 260.947 225.075C261.28 224.351 261.497 223.532 261.582 222.676C261.668 221.821 261.621 220.949 261.443 220.122L273.412 207.751L266.206 203.922L255.945 216.256C254.986 216.771 254.193 217.768 253.717 219.057C253.241 220.346 253.115 221.838 253.362 223.25C253.609 224.662 254.213 225.897 255.059 226.72C255.905 227.542 256.934 227.896 257.952 227.714Z" fill="#A0616A"/>
<path d="M238.441 198.095C237.982 198.094 237.524 198.03 237.074 197.904C235.985 197.61 234.964 196.94 234.101 195.954C233.238 194.968 232.558 193.696 232.123 192.25L224.153 178.46C223.985 178.168 223.862 177.829 223.794 177.465C223.725 177.1 223.712 176.72 223.756 176.348C223.799 175.976 223.898 175.621 224.046 175.308C224.194 174.995 224.388 174.73 224.614 174.532L230.284 169.551C230.493 169.367 230.726 169.244 230.969 169.188C231.212 169.133 231.461 169.146 231.7 169.228C231.94 169.309 232.165 169.457 232.364 169.663C232.563 169.869 232.732 170.129 232.859 170.427L238.477 183.559L249.234 172.278C250.091 171.641 251.08 171.462 252.022 171.774C252.963 172.087 253.795 172.87 254.363 173.98C254.932 175.09 255.2 176.453 255.119 177.821C255.037 179.188 254.612 180.469 253.92 181.428L243.184 195.326C241.922 197.1 240.217 198.096 238.441 198.095Z" fill="#2F2E41"/>
<path d="M267.507 218.836C267.493 218.836 267.478 218.836 267.464 218.836C267.202 218.827 266.945 218.74 266.709 218.581C266.472 218.422 266.262 218.194 266.092 217.912L261.051 209.567C260.879 209.283 260.752 208.95 260.677 208.591C260.603 208.232 260.583 207.854 260.619 207.483C260.655 207.113 260.746 206.757 260.886 206.44C261.026 206.122 261.212 205.851 261.432 205.643L270.872 196.713L262.32 182.124C261.822 180.947 261.64 179.556 261.806 178.204C261.972 176.852 262.475 175.63 263.223 174.761C263.972 173.891 264.915 173.434 265.882 173.47C266.849 173.507 267.774 174.036 268.489 174.961L278.882 189.374C279.7 190.434 280.325 191.761 280.702 193.239C281.079 194.717 281.198 196.303 281.048 197.861C280.899 199.419 280.485 200.902 279.842 202.183C279.2 203.463 278.348 204.504 277.359 205.214L268.864 218.005C268.69 218.268 268.48 218.476 268.246 218.619C268.013 218.762 267.762 218.836 267.507 218.836Z" fill="#2F2E41"/>
<path d="M255.926 188.082C255.846 188.082 255.765 188.075 255.685 188.06C255.333 188 255.002 187.797 254.729 187.478C254.457 187.158 254.255 186.734 254.147 186.256L250.359 169.775C250.264 169.358 250.278 168.907 250.4 168.504C250.521 168.102 250.741 167.775 251.019 167.585L251.142 167.503C251.254 167.427 251.364 167.353 251.477 167.282C253.243 166.119 255.166 165.513 257.113 165.504C259.641 165.511 262.113 166.565 264.224 168.536C264.507 168.804 264.705 169.218 264.775 169.691C264.845 170.163 264.781 170.655 264.598 171.061L257.491 186.859C257.325 187.234 257.094 187.543 256.82 187.757C256.546 187.971 256.239 188.083 255.926 188.082Z" fill="#E1EBEE"/>
<path d="M270.204 135.985C272.451 135.985 274.272 133.401 274.272 130.213C274.272 127.025 272.451 124.441 270.204 124.441C267.958 124.441 266.137 127.025 266.137 130.213C266.137 133.401 267.958 135.985 270.204 135.985Z" fill="#2F2E41"/>
<path d="M256.258 123.867C253.401 123.867 250.66 125.477 248.64 128.344C246.619 131.211 245.484 135.1 245.484 139.154V145.622H251.09L253.772 139.154L254.576 145.622H271.589L267.031 139.154C267.031 135.1 265.896 131.211 263.876 128.344C261.855 125.477 259.115 123.867 256.258 123.867Z" fill="#2F2E41"/>
<path d="M272.297 126.253C272.747 124.258 273.678 122.551 274.927 121.433C276.176 120.315 277.663 119.857 279.126 120.141C281.718 120.756 283.768 123.713 284.989 127.015C286.21 130.318 286.774 134.014 287.595 137.556C288.416 141.099 289.58 144.661 291.653 146.955C293.725 149.248 296.906 149.87 298.941 147.511C298.709 149.97 297.937 152.262 296.736 154.065C295.535 155.867 293.965 157.088 292.248 157.555C290.531 158.022 288.754 157.711 287.168 156.666C285.583 155.622 284.269 153.896 283.412 151.733C282.338 149.022 282.061 145.844 281.742 142.766C281.424 139.689 281.01 136.504 279.728 133.981C278.445 131.459 276.045 129.811 274.008 130.96L272.297 126.253Z" fill="#2F2E41"/>
<path d="M140.032 135.057C136.324 135.056 132.768 132.965 130.145 129.244C127.523 125.524 126.05 120.477 126.05 115.215C126.05 111.626 126.052 108.882 126.055 108.492C126.173 96.1991 128.355 84.1235 132.419 73.2666C125.741 86.2391 122.07 101.836 121.912 117.899C121.908 118.29 121.906 121.034 121.906 124.623C121.906 129.885 123.38 134.931 126.002 138.652C128.624 142.373 132.18 144.464 135.889 144.464C138.936 144.463 141.899 143.05 144.329 140.44C146.759 137.831 148.522 134.167 149.35 130.006C146.79 133.264 143.471 135.063 140.032 135.057Z" fill="#3F3D56"/>
<path d="M177.657 82.7722C181.944 83.0628 186.118 84.8254 189.819 87.9088C193.52 90.9922 196.639 95.3042 198.907 100.475C201.175 105.645 202.525 111.519 202.841 117.593C203.157 123.667 202.429 129.759 200.72 135.345C203.192 131.226 205.009 126.399 206.046 121.194C207.084 115.988 207.319 110.526 206.734 105.18C206.15 99.8345 204.76 94.7303 202.659 90.2158C200.558 85.7013 197.796 81.8826 194.561 79.0202C191.326 76.1577 187.694 74.3188 183.912 73.6287C180.131 72.9386 176.289 73.4136 172.649 75.0214C169.009 76.6291 165.656 79.3317 162.818 82.945C159.981 86.5583 157.726 90.9973 156.207 95.9593C158.832 91.5773 162.131 88.1094 165.85 85.823C169.569 83.5366 173.609 82.4929 177.657 82.7722Z" fill="#3F3D56"/>
<path d="M181.962 258.53C178.179 258.532 174.548 256.422 171.851 252.658C169.154 248.894 167.608 243.776 167.547 238.408C167.371 222.852 167.28 203.687 167.28 201.496C167.278 196.168 167.819 190.866 168.885 185.757L168.88 185.755C169.51 183.191 170.271 180.695 171.157 178.288C168.438 183.429 166.274 189.117 164.737 195.163L164.742 195.165C163.675 200.274 163.134 205.575 163.137 210.904C163.137 213.094 163.228 232.26 163.403 247.816C163.464 253.183 165.01 258.301 167.707 262.066C170.404 265.83 174.036 267.939 177.819 267.938C180.938 267.937 183.973 266.501 186.468 263.846C188.963 261.191 190.785 257.459 191.659 253.21C189.008 256.64 185.549 258.537 181.962 258.53Z" fill="#3F3D56"/>
<path d="M52.4309 343.522L57.5106 343.522L59.9276 315.717L52.4297 315.718L52.4309 343.522Z" fill="#FFB8B8"/>
<path d="M67.3086 350.219L51.3429 350.22L51.3427 341.467L61.1398 341.466C62.7758 341.466 64.3448 342.388 65.5017 344.029C66.6585 345.671 67.3085 347.897 67.3086 350.219Z" fill="#2F2E41"/>
<path d="M34.2005 343.522L39.2801 343.522L41.6971 315.717L34.1992 315.718L34.2005 343.522Z" fill="#FFB8B8"/>
<path d="M49.0781 350.219L33.1125 350.22L33.1122 341.467L42.9093 341.466C44.5453 341.466 46.1143 342.388 47.2712 344.029C48.4281 345.671 49.0781 347.897 49.0781 350.219Z" fill="#2F2E41"/>
<path d="M38.6406 334.971L33.6786 334.601C33.4227 334.582 33.1721 334.491 32.9412 334.333C32.7103 334.176 32.5037 333.955 32.3334 333.683C32.1631 333.411 32.0325 333.094 31.9491 332.751C31.8658 332.407 31.8313 332.043 31.8477 331.68L37.7784 238.505L65.0894 248.963L67.7207 247.944L59.4922 330.429C59.4221 331.049 59.2049 331.617 58.8766 332.039C58.5483 332.461 58.1284 332.711 57.6863 332.748L52.3373 333.102C52.0699 333.123 51.8023 333.065 51.5514 332.932C51.3005 332.799 51.0718 332.593 50.8797 332.328C50.6877 332.063 50.5365 331.745 50.4356 331.392C50.3348 331.04 50.2866 330.662 50.2939 330.282L51.2631 280.776C51.2676 280.548 51.2116 280.325 51.106 280.151C51.0004 279.978 50.8529 279.867 50.6926 279.841C50.5323 279.814 50.3708 279.874 50.24 280.008C50.1091 280.142 50.0183 280.341 49.9856 280.565L40.6388 332.785C40.5506 333.404 40.3137 333.961 39.9684 334.361C39.6232 334.76 39.191 334.977 38.7455 334.975C38.7108 334.975 38.6758 334.974 38.6406 334.971Z" fill="#2F2E41"/>
<path d="M53.3451 162.272C58.9658 162.272 63.5223 155.806 63.5223 147.831C63.5223 139.855 58.9658 133.389 53.3451 133.389C47.7244 133.389 43.168 139.855 43.168 147.831C43.168 155.806 47.7244 162.272 53.3451 162.272Z" fill="#FFB8B8"/>
<path d="M36.4007 190.258L37.5197 224.518L37.9242 236.982C37.9403 237.525 38.0701 238.048 38.2971 238.486C38.524 238.923 38.8377 239.254 39.1981 239.437L65.4421 252.927C65.6541 253.039 65.8787 253.095 66.1049 253.092C66.3634 253.094 66.6195 253.022 66.8579 252.88C67.0963 252.738 67.3122 252.53 67.4925 252.267C67.6729 252.004 67.8141 251.693 67.9077 251.351C68.0013 251.009 68.0454 250.644 68.0374 250.277L66.9614 188.676C66.8908 183.622 65.5797 178.761 63.2542 174.932C60.9287 171.103 57.7346 168.544 54.2224 167.699C53.9686 167.644 53.7103 167.589 53.452 167.54C51.2742 167.156 49.0636 167.454 46.9757 168.413C44.8878 169.373 42.9734 170.969 41.3671 173.091C39.7039 175.262 38.397 177.924 37.5388 180.891C36.6806 183.857 36.2921 187.055 36.4007 190.258Z" fill="#E1EBEE"/>
<path d="M77.9759 246.092C77.3551 245.819 76.788 245.344 76.3198 244.704C75.8516 244.065 75.4952 243.278 75.2791 242.409C75.0629 241.539 74.9931 240.61 75.0751 239.695C75.157 238.78 75.3886 237.905 75.7512 237.14L66.8516 220.347L74.5315 219.672L81.8053 235.722C82.584 236.577 83.1259 237.793 83.3359 239.157C83.5459 240.522 83.4106 241.948 82.9537 243.185C82.4969 244.422 81.7476 245.392 80.8374 245.923C79.9272 246.455 78.9141 246.515 77.9759 246.092Z" fill="#FFB8B8"/>
<path d="M71.7204 234.099C71.4846 233.963 71.2702 233.762 71.0894 233.508C70.9087 233.254 70.7653 232.951 70.6675 232.618L57.2595 187.288C56.9964 186.401 56.8591 185.448 56.8555 184.486C56.852 183.523 56.9821 182.568 57.2386 181.677C57.4951 180.785 57.8728 179.975 58.3503 179.29C58.8277 178.606 59.3955 178.062 60.0212 177.69C60.6468 177.317 61.3181 177.123 61.9966 177.119C62.6752 177.114 63.3476 177.3 63.9756 177.664C64.6036 178.029 65.1748 178.566 65.6566 179.244C66.1383 179.922 66.5212 180.728 66.7833 181.616L80.1913 226.947C80.3895 227.619 80.3917 228.375 80.1975 229.049C80.0032 229.724 79.6284 230.261 79.1552 230.544L73.2027 234.089C72.9684 234.23 72.7167 234.303 72.4623 234.305C72.2078 234.306 71.9557 234.237 71.7204 234.099Z" fill="#E1EBEE"/>
<path d="M50.0723 232.5L62.9504 197.51C63.1988 196.837 63.6251 196.331 64.1358 196.104C64.6466 195.876 65.2 195.946 65.6748 196.297L84.3673 210.149C84.8415 210.502 85.1979 211.107 85.3582 211.832C85.5185 212.556 85.4696 213.342 85.2223 214.015L72.3443 249.005C72.0959 249.678 71.6696 250.184 71.1588 250.411C70.6481 250.639 70.0946 250.57 69.6198 250.219L50.9274 236.366C50.4531 236.013 50.0968 235.408 49.9365 234.684C49.7762 233.959 49.8251 233.174 50.0723 232.5Z" fill="#3F3D56"/>
<path d="M58.7076 216.512C58.4787 215.649 58.1108 214.874 57.6332 214.249C57.1556 213.623 56.5816 213.165 55.957 212.91C55.3323 212.655 54.6744 212.611 54.0356 212.781C53.3969 212.951 52.795 213.331 52.278 213.89L39.9389 202.275L39.918 213.193L51.6385 222.549C52.2855 223.602 53.173 224.298 54.1454 224.515C55.1178 224.732 56.1129 224.456 56.9563 223.735C57.7996 223.015 58.4374 221.897 58.7576 220.576C59.0779 219.255 59.0602 217.817 58.7076 216.512Z" fill="#FFB8B8"/>
<path d="M43.1119 218.971L33.0277 207.636C31.9368 207.117 30.9511 206.229 30.1551 205.05C29.3592 203.87 28.7768 202.434 28.458 200.865C28.1392 199.296 28.0935 197.641 28.3248 196.041C28.5561 194.442 29.0575 192.946 29.786 191.681L38.9422 174.654C39.5785 173.551 40.4733 172.809 41.4632 172.565C42.453 172.321 43.4717 172.59 44.3331 173.324C45.1945 174.058 45.841 175.207 46.1544 176.561C46.4678 177.916 46.4272 179.385 46.0401 180.701L38.7954 197.517L49.442 204.683C49.6896 204.849 49.9095 205.089 50.087 205.385C50.2646 205.681 50.3959 206.027 50.4722 206.4C50.5485 206.774 50.5681 207.166 50.5296 207.551C50.4912 207.936 50.3957 208.305 50.2493 208.634L45.9516 218.285C45.8063 218.611 45.6145 218.889 45.3884 219.103C45.1624 219.317 44.9072 219.461 44.6395 219.526C44.6288 219.529 44.6181 219.531 44.6074 219.533C44.3443 219.59 44.0759 219.569 43.8186 219.472C43.5614 219.376 43.3209 219.205 43.1119 218.971Z" fill="#E1EBEE"/>
<path d="M45.6519 157.502C45.6083 157.32 45.5944 157.127 45.6114 156.937C45.6285 156.747 45.6759 156.565 45.7502 156.405C45.8244 156.245 45.9235 156.111 46.0398 156.014C46.1561 155.917 46.2865 155.859 46.4211 155.844C46.6968 155.865 46.9665 155.966 47.2141 156.139C47.4617 156.312 47.6819 156.555 47.8615 156.852C48.2298 157.455 48.6586 157.977 49.1341 158.403C49.6264 158.755 50.2941 158.705 50.5748 158.034C50.8383 157.403 50.6577 156.559 50.4982 155.827C50.0922 153.964 49.865 152.031 49.8228 150.082C49.7768 147.906 49.9932 145.636 50.842 143.939C51.9375 141.749 53.8964 140.917 55.7503 140.978C57.6042 141.038 59.428 141.85 61.2643 142.363C61.8982 142.54 62.6434 142.631 63.0674 141.934C63.5182 141.193 63.3527 139.993 63.1609 138.992C62.6633 136.394 62.1353 133.709 60.9792 131.611C59.729 129.432 57.9433 128.005 55.9816 127.619C54.0983 127.288 52.1865 127.596 50.4033 128.517C47.4982 129.817 44.9419 132.344 43.0762 135.761C41.153 139.394 40.322 143.96 40.7649 148.461C41.1975 152.381 42.6613 155.922 44.8612 158.371L45.6519 157.502Z" fill="#2F2E41"/>
<path d="M174.55 343.642C171.842 341.969 169.446 339.425 167.549 336.212C165.653 332.999 164.309 329.205 163.623 325.129C162.937 321.053 162.928 316.806 163.597 312.724C164.266 308.642 165.594 304.837 167.477 301.608C165.294 303.87 163.475 306.764 162.141 310.1C160.806 313.435 159.987 317.135 159.738 320.954C159.488 324.773 159.814 328.623 160.693 332.25C161.573 335.877 162.985 339.196 164.838 341.989C166.691 344.782 168.941 346.983 171.439 348.447C173.937 349.912 176.626 350.605 179.327 350.482C182.029 350.359 184.681 349.422 187.108 347.733C189.534 346.045 191.68 343.643 193.403 340.687C190.716 343.474 187.562 345.213 184.254 345.731C180.946 346.25 177.6 345.529 174.55 343.642Z" fill="#3F3D56"/>
</svg>