<svg width="22" height="19" viewBox="0 0 22 19" fill="none" xmlns="http://www.w3.org/2000/svg">
<path d="M19 0.8302H3C1.89543 0.8302 1 1.86209 1 3.135V15.8114C1 17.0843 1.89543 18.1162 3 18.1162H19C20.1046 18.1162 21 17.0843 21 15.8114V3.135C21 1.86209 20.1046 0.8302 19 0.8302Z" stroke="#E1EBEE" stroke-width="1.5" stroke-linecap="round" stroke-linejoin="round"/>
<path d="M10.2482 7.663H9.05291C9.01882 7.46697 8.95597 7.29332 8.86435 7.14205C8.77273 6.98864 8.65874 6.85866 8.52237 6.75213C8.38601 6.6456 8.23047 6.5657 8.05575 6.51243C7.88317 6.45703 7.69673 6.42933 7.49645 6.42933C7.14063 6.42933 6.82528 6.51882 6.55043 6.6978C6.27557 6.87464 6.06037 7.13459 5.90483 7.47763C5.74929 7.81854 5.67152 8.23509 5.67152 8.72727C5.67152 9.22798 5.74929 9.64986 5.90483 9.9929C6.0625 10.3338 6.2777 10.5916 6.55043 10.7663C6.82528 10.9389 7.13956 11.0252 7.49325 11.0252C7.68928 11.0252 7.87251 10.9996 8.04297 10.9485C8.21555 10.8952 8.37003 10.8175 8.50639 10.7152C8.64489 10.6129 8.76101 10.4872 8.85476 10.3381C8.95064 10.1889 9.01669 10.0185 9.05291 9.8267L10.2482 9.8331C10.2035 10.1442 10.1065 10.4361 9.95739 10.7088C9.81037 10.9815 9.61754 11.2223 9.37891 11.4311C9.14027 11.6378 8.86115 11.7997 8.54155 11.9169C8.22195 12.032 7.86719 12.0895 7.47727 12.0895C6.90199 12.0895 6.38849 11.9563 5.93679 11.69C5.48509 11.4237 5.12926 11.0391 4.86932 10.5362C4.60938 10.0334 4.4794 9.4304 4.4794 8.72727C4.4794 8.02202 4.61044 7.41903 4.87251 6.91832C5.13459 6.41548 5.49148 6.03089 5.94318 5.76456C6.39489 5.49822 6.90625 5.36506 7.47727 5.36506C7.84162 5.36506 8.1804 5.41619 8.49361 5.51847C8.80682 5.62074 9.08594 5.77095 9.33097 5.96911C9.57599 6.16513 9.77734 6.40589 9.93501 6.69141C10.0948 6.97479 10.1992 7.29865 10.2482 7.663ZM16.9367 7.663H15.7414C15.7073 7.46697 15.6444 7.29332 15.5528 7.14205C15.4612 6.98864 15.3472 6.85866 15.2108 6.75213C15.0745 6.6456 14.9189 6.5657 14.7442 6.51243C14.5716 6.45703 14.3852 6.42933 14.1849 6.42933C13.8291 6.42933 13.5138 6.51882 13.2389 6.6978C12.964 6.87464 12.7488 7.13459 12.5933 7.47763C12.4378 7.81854 12.36 8.23509 12.36 8.72727C12.36 9.22798 12.4378 9.64986 12.5933 9.9929C12.751 10.3338 12.9662 10.5916 13.2389 10.7663C13.5138 10.9389 13.828 11.0252 14.1817 11.0252C14.3778 11.0252 14.561 10.9996 14.7314 10.9485C14.904 10.8952 15.0585 10.8175 15.1949 10.7152C15.3334 10.6129 15.4495 10.4872 15.5432 10.3381C15.6391 10.1889 15.7052 10.0185 15.7414 9.8267L16.9367 9.8331C16.892 10.1442 16.795 10.4361 16.6459 10.7088C16.4988 10.9815 16.306 11.2223 16.0674 11.4311C15.8287 11.6378 15.5496 11.7997 15.23 11.9169C14.9104 12.032 14.5557 12.0895 14.1657 12.0895C13.5905 12.0895 13.077 11.9563 12.6253 11.69C12.1736 11.4237 11.8177 11.0391 11.5578 10.5362C11.2979 10.0334 11.1679 9.4304 11.1679 8.72727C11.1679 8.02202 11.2989 7.41903 11.561 6.91832C11.8231 6.41548 12.18 6.03089 12.6317 5.76456C13.0834 5.49822 13.5947 5.36506 14.1657 5.36506C14.5301 5.36506 14.8689 5.41619 15.1821 5.51847C15.4953 5.62074 15.7744 5.77095 16.0194 5.96911C16.2645 6.16513 16.4658 6.40589 16.6235 6.69141C16.7833 6.97479 16.8877 7.29865 16.9367 7.663Z" fill="#E1EBEE"/>
</svg>