<svg width="15" height="15" viewBox="0 0 15 15" fill="none" xmlns="http://www.w3.org/2000/svg">
<path d="M10.7772 2.30444C10.3053 2.30444 9.85283 2.49274 9.51919 2.82792C9.18555 3.16309 8.99812 3.61769 8.99812 4.0917V11.2407C8.99812 11.7147 9.18555 12.1693 9.51919 12.5045C9.85283 12.8397 10.3053 13.028 10.7772 13.028C11.249 13.028 11.7015 12.8397 12.0352 12.5045C12.3688 12.1693 12.5563 11.7147 12.5563 11.2407C12.5563 10.7667 12.3688 10.3121 12.0352 9.97694C11.7015 9.64176 11.249 9.45346 10.7772 9.45346H3.66091C3.18907 9.45346 2.73655 9.64176 2.40291 9.97694C2.06927 10.3121 1.88184 10.7667 1.88184 11.2407C1.88184 11.7147 2.06927 12.1693 2.40291 12.5045C2.73655 12.8397 3.18907 13.028 3.66091 13.028C4.13274 13.028 4.58526 12.8397 4.9189 12.5045C5.25254 12.1693 5.43998 11.7147 5.43998 11.2407V4.0917C5.43998 3.61769 5.25254 3.16309 4.9189 2.82792C4.58526 2.49274 4.13274 2.30444 3.66091 2.30444C3.18907 2.30444 2.73655 2.49274 2.40291 2.82792C2.06927 3.16309 1.88184 3.61769 1.88184 4.0917C1.88184 4.56571 2.06927 5.0203 2.40291 5.35548C2.73655 5.69065 3.18907 5.87895 3.66091 5.87895H10.7772C11.249 5.87895 11.7015 5.69065 12.0352 5.35548C12.3688 5.0203 12.5563 4.56571 12.5563 4.0917C12.5563 3.61769 12.3688 3.16309 12.0352 2.82792C11.7015 2.49274 11.249 2.30444 10.7772 2.30444Z" stroke="#E1EBEE" stroke-linecap="round" stroke-linejoin="round"/>
</svg>
