<svg width="11" height="12" viewBox="0 0 11 12" fill="none" xmlns="http://www.w3.org/2000/svg">
<g clip-path="url(#clip0_834_2242)">
<path d="M9.62508 6.23065C9.55298 7.01098 9.26018 7.75464 8.78094 8.3746C8.3017 8.99457 7.65584 9.4652 6.91894 9.73142C6.18204 9.99765 5.38457 10.0485 4.61985 9.87791C3.85513 9.70737 3.15478 9.32251 2.60076 8.76838C2.04674 8.21425 1.66197 7.51377 1.49145 6.7489C1.32094 5.98402 1.37174 5.1864 1.63791 4.44935C1.90409 3.7123 2.37462 3.06631 2.99447 2.58698C3.61431 2.10765 4.35782 1.81479 5.13799 1.74268C4.68122 2.36075 4.46142 3.12228 4.51857 3.88875C4.57572 4.65522 4.90601 5.37571 5.44939 5.9192C5.99276 6.46268 6.71311 6.79304 7.47943 6.8502C8.24575 6.90735 9.00712 6.68751 9.62508 6.23065Z" stroke="#E1EBEE" stroke-width="2" stroke-linecap="round" stroke-linejoin="round"/>
</g>
<defs>
<clipPath id="clip0_834_2242">
<rect width="11" height="11.0022" fill="white" transform="translate(0 0.357422)"/>
</clipPath>
</defs>
</svg>
