<svg width="23" height="23" viewBox="0 0 23 23" fill="none" xmlns="http://www.w3.org/2000/svg">
<path d="M14.9634 17.2969C14.9634 18.8157 16.1946 20.0469 17.7134 20.0469C19.2322 20.0469 20.4634 18.8157 20.4634 17.2969C20.4634 15.7781 19.2322 14.5469 17.7134 14.5469C16.1946 14.5469 14.9634 15.7781 14.9634 17.2969Z" stroke="#E1EBEE" stroke-width="2" stroke-linecap="round" stroke-linejoin="round"/>
<path d="M8.54688 6.29688C8.54688 7.81566 9.77809 9.04688 11.2969 9.04688C12.8157 9.04688 14.0469 7.81566 14.0469 6.29688C14.0469 4.77809 12.8157 3.54688 11.2969 3.54688C9.77809 3.54688 8.54688 4.77809 8.54688 6.29688Z" stroke="#E1EBEE" stroke-width="2" stroke-linecap="round" stroke-linejoin="round"/>
<path d="M2.13037 17.2969C2.13037 18.8157 3.36159 20.0469 4.88037 20.0469C6.39915 20.0469 7.63037 18.8157 7.63037 17.2969C7.63037 15.7781 6.39915 14.5469 4.88037 14.5469C3.36159 14.5469 2.13037 15.7781 2.13037 17.2969Z" stroke="#E1EBEE" stroke-width="2" stroke-linecap="round" stroke-linejoin="round"/>
<path d="M9.9126 8.67188L6.26426 14.9327" stroke="#E1EBEE" stroke-width="2" stroke-linecap="round" stroke-linejoin="round"/>
<path d="M16.3296 14.9235L12.6813 8.67188" stroke="#E1EBEE" stroke-width="2" stroke-linecap="round" stroke-linejoin="round"/>
<rect x="22.2969" y="0.796875" width="22" height="22" transform="rotate(90 22.2969 0.796875)" stroke="#4B61D1"/>
</svg>
