<svg width="50" height="50" viewBox="0 0 50 50" fill="none" xmlns="http://www.w3.org/2000/svg">
<path d="M3 17.3002C3 10.3703 6.94841 7.40039 12.871 7.40039H18.7936C18.5085 8.23637 18.3549 9.16036 18.3549 10.1503V18.7302C18.3549 20.8641 19.0569 22.6681 20.3072 23.9221C21.5575 25.176 23.3563 25.88 25.484 25.88V28.938C25.484 30.0599 26.7563 30.7419 27.6995 30.1259L34.0389 25.88H39.7422C40.7293 25.88 41.6506 25.726 42.4841 25.44V29.18C42.4841 36.1098 38.5357 39.0798 32.6131 39.0798H12.871C6.94841 39.0798 3 36.1098 3 29.18V25.88" fill="#F4B719" fill-opacity="0.88"/>
<path d="M3 17.3002C3 10.3703 6.94841 7.40039 12.871 7.40039H18.7936C18.5085 8.23637 18.3549 9.16036 18.3549 10.1503V18.7302C18.3549 20.8641 19.0569 22.6681 20.3072 23.9221C21.5575 25.176 23.3563 25.88 25.484 25.88V28.938C25.484 30.0599 26.7563 30.7419 27.6995 30.1259L34.0389 25.88H39.7422C40.7293 25.88 41.6506 25.726 42.4841 25.44V29.18C42.4841 36.1098 38.5357 39.0798 32.6131 39.0798H12.871C6.94841 39.0798 3 36.1098 3 29.18V25.88" stroke="#E1EBEE" stroke-width="4.662" stroke-miterlimit="10" stroke-linecap="round" stroke-linejoin="round"/>
<path d="M46.8708 18.7297C46.8708 22.0076 45.2037 24.4716 42.4837 25.4396C41.6501 25.7256 40.7288 25.8796 39.7417 25.8796H34.0385L27.6991 30.1255C26.7558 30.7415 25.4836 30.0595 25.4836 28.9375V25.8796C23.3558 25.8796 21.5571 25.1756 20.3068 23.9216C19.0564 22.6676 18.3545 20.8636 18.3545 18.7297V10.1499C18.3545 9.15988 18.508 8.2359 18.7932 7.39991C19.7584 4.67197 22.2152 3 25.4836 3H39.7417C44.0192 3 46.8708 5.85994 46.8708 10.1499" fill="#F4B719" fill-opacity="0.88"/>
<path d="M46.8708 18.7297C46.8708 22.0076 45.2037 24.4716 42.4837 25.4396C41.6501 25.7256 40.7288 25.8796 39.7417 25.8796H34.0385L27.6991 30.1255C26.7558 30.7415 25.4836 30.0595 25.4836 28.9375V25.8796C23.3558 25.8796 21.5571 25.1756 20.3068 23.9216C19.0564 22.6676 18.3545 20.8636 18.3545 18.7297V10.1499C18.3545 9.15988 18.508 8.2359 18.7932 7.39991C19.7584 4.67197 22.2152 3 25.4836 3H39.7417C44.0192 3 46.8708 5.85994 46.8708 10.1499" stroke="#E1EBEE" stroke-width="4.662" stroke-miterlimit="10" stroke-linecap="round" stroke-linejoin="round"/>
<path d="M14.8457 47H30.6394H14.8457Z" fill="#F4B719" fill-opacity="0.88"/>
<path d="M14.8457 47H30.6394" stroke="#E1EBEE" stroke-width="4.662" stroke-miterlimit="10" stroke-linecap="round" stroke-linejoin="round"/>
<path d="M22.7422 39.0801V46.9999V39.0801Z" fill="#F4B719" fill-opacity="0.88"/>
<path d="M22.7422 39.0801V46.9999" stroke="#E1EBEE" stroke-width="4.662" stroke-miterlimit="10" stroke-linecap="round" stroke-linejoin="round"/>
<path d="M39.1836 14.5508H39.2034H39.1836Z" fill="#F4B719" fill-opacity="0.88"/>
<path d="M39.1836 14.5508H39.2034" stroke="#E1EBEE" stroke-width="4.662" stroke-linecap="round" stroke-linejoin="round"/>
<path d="M33.041 14.5508H33.0608H33.041Z" fill="#F4B719" fill-opacity="0.88"/>
<path d="M33.041 14.5508H33.0608" stroke="#E1EBEE" stroke-width="4.662" stroke-linecap="round" stroke-linejoin="round"/>
<path d="M26.9004 14.5508H26.9202H26.9004Z" fill="#F4B719" fill-opacity="0.88"/>
<path d="M26.9004 14.5508H26.9202" stroke="#E1EBEE" stroke-width="4.662" stroke-linecap="round" stroke-linejoin="round"/>
</svg>
