<svg width="18" height="18" viewBox="0 0 18 18" fill="none" xmlns="http://www.w3.org/2000/svg">
<path d="M16 0H2C0.89543 0 0 0.89543 0 2V16C0 17.1046 0.89543 18 2 18H16C17.1046 18 18 17.1046 18 16V2C18 0.89543 17.1046 0 16 0ZM5.5 14.5C5.5 14.7761 5.27614 15 5 15H3.5C3.22386 15 3 14.7761 3 14.5V7.5C3 7.22386 3.22386 7 3.5 7H5C5.27614 7 5.5 7.22386 5.5 7.5V14.5ZM4.25 6C3.42157 6 2.75 5.32843 2.75 4.5C2.75 3.67157 3.42157 3 4.25 3C5.07843 3 5.75 3.67157 5.75 4.5C5.75 5.32843 5.07843 6 4.25 6ZM15 14.5C15 14.7761 14.7761 15 14.5 15H13C12.7239 15 12.5 14.7761 12.5 14.5V10.75C12.5 9.92157 11.8284 9.25 11 9.25C10.1716 9.25 9.5 9.92157 9.5 10.75V14.5C9.5 14.7761 9.27614 15 9 15H7.5C7.22386 15 7 14.7761 7 14.5V7.5C7 7.22386 7.22386 7 7.5 7H9C9.27614 7 9.5 7.22386 9.5 7.5V8.1C10.1083 7.17441 11.177 6.65925 12.28 6.76C13.8576 6.95452 15.0325 8.31078 15 9.9V14.5Z" fill="#E1EBEE"/>
</svg>
