<svg width="44" height="44" viewBox="0 0 44 44" fill="none" xmlns="http://www.w3.org/2000/svg">
<path d="M38.5 18.3334C38.5 31.1667 22 42.1667 22 42.1667C22 42.1667 5.5 31.1667 5.5 18.3334C5.5 13.9573 7.23839 9.76046 10.3327 6.66611C13.4271 3.57176 17.6239 1.83337 22 1.83337C26.3761 1.83337 30.5729 3.57176 33.6673 6.66611C36.7616 9.76046 38.5 13.9573 38.5 18.3334Z" fill="#F4B719" fill-opacity="0.88" stroke="#E1EBEE" stroke-width="2" stroke-linecap="round" stroke-linejoin="round"/>
<path d="M22 23.8334C25.0376 23.8334 27.5 21.3709 27.5 18.3334C27.5 15.2958 25.0376 12.8334 22 12.8334C18.9624 12.8334 16.5 15.2958 16.5 18.3334C16.5 21.3709 18.9624 23.8334 22 23.8334Z" stroke="#E1EBEE" stroke-width="2" stroke-linecap="round" stroke-linejoin="round"/>
</svg>
