<svg width="44" height="44" viewBox="0 0 44 44" fill="none" xmlns="http://www.w3.org/2000/svg">
<path d="M40.3336 31.02V36.52C40.3357 37.0306 40.2311 37.536 40.0266 38.0038C39.822 38.4716 39.522 38.8916 39.1458 39.2368C38.7695 39.5819 38.3253 39.8447 37.8417 40.0083C37.358 40.1719 36.8455 40.2326 36.337 40.1867C30.6955 39.5737 25.2764 37.646 20.5153 34.5583C16.0856 31.7436 12.3301 27.988 9.51528 23.5583C6.41691 18.7756 4.48873 13.3302 3.88695 7.66335C3.84114 7.15637 3.90139 6.64541 4.06387 6.16299C4.22635 5.68058 4.4875 5.23728 4.83069 4.86132C5.17388 4.48536 5.59159 4.18498 6.05723 3.97931C6.52288 3.77363 7.02624 3.66716 7.53528 3.66668H13.0353C13.925 3.65792 14.7876 3.97299 15.4622 4.55316C16.1368 5.13332 16.5774 5.939 16.702 6.82001C16.9341 8.58014 17.3646 10.3083 17.9853 11.9717C18.2319 12.6279 18.2853 13.341 18.1391 14.0266C17.9929 14.7122 17.6532 15.3416 17.1603 15.84L14.832 18.1683C17.4418 22.7582 21.2421 26.5585 25.832 29.1683L28.1603 26.84C28.6587 26.3471 29.2881 26.0074 29.9737 25.8612C30.6593 25.715 31.3724 25.7684 32.0286 26.015C33.692 26.6357 35.4202 27.0662 37.1803 27.2983C38.0709 27.424 38.8842 27.8726 39.4656 28.5588C40.047 29.245 40.3559 30.1209 40.3336 31.02Z" fill="#F4B719" fill-opacity="0.88" stroke="#EFEFEF" stroke-width="2" stroke-linecap="round" stroke-linejoin="round"/>
</svg>
