<svg width="24" height="24" viewBox="0 0 24 24" fill="none" xmlns="http://www.w3.org/2000/svg">
<g clip-path="url(#clip0_197_2688)">
<path d="M8.06718 16.8482C7.97335 16.9429 7.84563 16.9961 7.71238 16.9961C7.57914 16.9961 7.45141 16.9429 7.35758 16.8482L3.21988 12.7182C3.07926 12.5777 3.00017 12.387 3 12.1882V11.8082C3.0023 11.6098 3.08107 11.4199 3.21988 11.2782L7.35758 7.14819C7.45141 7.05354 7.57914 7.0003 7.71238 7.0003C7.84563 7.0003 7.97335 7.05354 8.06718 7.14819L8.77679 7.8582C8.8708 7.95036 8.92378 8.07651 8.92378 8.2082C8.92378 8.33989 8.8708 8.46603 8.77679 8.5582L5.32871 11.9982L8.77679 15.4382C8.87139 15.5321 8.92461 15.6599 8.92461 15.7932C8.92461 15.9265 8.87139 16.0543 8.77679 16.1482L8.06718 16.8482ZM15.2132 7.8482C15.1186 7.94208 15.0654 8.06988 15.0654 8.2032C15.0654 8.33651 15.1186 8.46431 15.2132 8.5582L18.6613 11.9982L15.2232 15.4382C15.1292 15.5304 15.0762 15.6565 15.0762 15.7882C15.0762 15.9199 15.1292 16.046 15.2232 16.1382L15.9328 16.8482C16.0266 16.9429 16.1544 16.9961 16.2876 16.9961C16.4209 16.9961 16.5486 16.9429 16.6424 16.8482L20.7801 12.7182C20.9189 12.5765 20.9977 12.3866 21 12.1882V11.8082C20.9998 11.6094 20.9207 11.4187 20.7801 11.2782L16.6424 7.14819C16.5486 7.05354 16.4209 7.0003 16.2876 7.0003C16.1544 7.0003 16.0266 7.05354 15.9328 7.14819L15.2132 7.8482Z" fill="white"/>
</g>
<line x1="13.3341" y1="5.19612" x2="10.3924" y2="19.9048" stroke="#E1EBEE" stroke-width="2"/>
<defs>
<clipPath id="clip0_197_2688">
<rect width="24" height="24" fill="white" transform="matrix(0 -1 1 0 0 24)"/>
</clipPath>
</defs>
</svg>
