<svg width="24" height="25" viewBox="0 0 24 25" fill="none" xmlns="http://www.w3.org/2000/svg">
<path d="M24 17.4246C24 21.8053 21.396 24.4169 17.028 24.4169H15.6C14.94 24.4169 14.4 23.8753 14.4 23.2134V16.2692C14.4 15.9443 14.664 15.6675 14.988 15.6675L17.1 15.6314C17.268 15.6193 17.412 15.499 17.448 15.3305L17.868 13.0318C17.904 12.8152 17.736 12.6106 17.508 12.6106L14.952 12.6467C14.616 12.6467 14.352 12.3819 14.34 12.057L14.292 9.10839C14.292 8.91583 14.448 8.74736 14.652 8.74736L17.532 8.6992C17.736 8.6992 17.892 8.54276 17.892 8.33817L17.844 5.44975C17.844 5.24515 17.688 5.08871 17.484 5.08871L14.244 5.13686C12.252 5.17297 10.668 6.80971 10.704 8.80752L10.764 12.1171C10.776 12.4541 10.512 12.7189 10.176 12.7309L8.736 12.755C8.532 12.755 8.37601 12.9114 8.37601 13.116L8.41201 15.4027C8.41201 15.6073 8.568 15.7637 8.772 15.7637L10.212 15.7397C10.548 15.7397 10.812 16.0044 10.824 16.3294L10.932 23.1893C10.944 23.8633 10.404 24.4169 9.732 24.4169H6.972C2.604 24.4169 0 21.8053 0 17.4125V7.33925C0 2.95852 2.604 0.346924 6.972 0.346924H17.028C21.396 0.346924 24 2.95852 24 7.33925V17.4246Z" fill="#E1EBEE"/>
</svg>
