<svg width="24" height="25" viewBox="0 0 24 25" fill="none" xmlns="http://www.w3.org/2000/svg">
<path d="M17.028 0.346924H6.972C2.604 0.346924 0 2.95852 0 7.33925V17.4125C0 21.8053 2.604 24.4169 6.972 24.4169H17.016C21.384 24.4169 23.988 21.8053 23.988 17.4246V7.33925C24 2.95852 21.396 0.346924 17.028 0.346924ZM12 17.0515C9.432 17.0515 7.344 14.9574 7.344 12.3819C7.344 9.80642 9.432 7.71234 12 7.71234C14.568 7.71234 16.656 9.80642 16.656 12.3819C16.656 14.9574 14.568 17.0515 12 17.0515ZM19.104 6.22C19.044 6.36442 18.96 6.4968 18.852 6.61715C18.732 6.72547 18.6 6.80971 18.456 6.86989C18.312 6.93006 18.156 6.96617 18 6.96617C17.676 6.96617 17.376 6.84582 17.148 6.61715C17.04 6.4968 16.956 6.36442 16.896 6.22C16.836 6.07558 16.8 5.91912 16.8 5.76267C16.8 5.60621 16.836 5.44976 16.896 5.30534C16.956 5.14888 17.04 5.02853 17.148 4.90818C17.424 4.63138 17.844 4.49899 18.228 4.58324C18.312 4.59527 18.384 4.61934 18.456 4.65545C18.528 4.67952 18.6 4.71562 18.672 4.76376C18.732 4.79987 18.792 4.86004 18.852 4.90818C18.96 5.02853 19.044 5.14888 19.104 5.30534C19.164 5.44976 19.2 5.60621 19.2 5.76267C19.2 5.91912 19.164 6.07558 19.104 6.22Z" fill="#E1EBEE"/>
</svg>
