<svg width="35" height="35" viewBox="0 0 35 35" fill="none" xmlns="http://www.w3.org/2000/svg">
<circle cx="17.5" cy="17.5" r="17.5" fill="#0080CF"/>
<g clip-path="url(#clip0_1_3436)">
<path d="M24.5 16.4531C24.5 21.7031 17.75 26.2031 17.75 26.2031C17.75 26.2031 11 21.7031 11 16.4531C11 14.6629 11.7112 12.946 12.977 11.6802C14.2429 10.4143 15.9598 9.70312 17.75 9.70312C19.5402 9.70312 21.2571 10.4143 22.523 11.6802C23.7888 12.946 24.5 14.6629 24.5 16.4531Z" stroke="#E1EBEE" stroke-width="2" stroke-linecap="round" stroke-linejoin="round"/>
<path d="M17.75 18.7031C18.9926 18.7031 20 17.6958 20 16.4531C20 15.2105 18.9926 14.2031 17.75 14.2031C16.5074 14.2031 15.5 15.2105 15.5 16.4531C15.5 17.6958 16.5074 18.7031 17.75 18.7031Z" stroke="#E1EBEE" stroke-width="2" stroke-linecap="round" stroke-linejoin="round"/>
</g>
<defs>
<clipPath id="clip0_1_3436">
<rect width="18" height="18" fill="white" transform="translate(8.75 8.95312)"/>
</clipPath>
</defs>
</svg>
