<svg width="35" height="35" viewBox="0 0 35 35" fill="none" xmlns="http://www.w3.org/2000/svg">
<circle cx="17.5" cy="17.5" r="17.5" fill="#0080CF"/>
<g clip-path="url(#clip0_1_3448)">
<path d="M25.5001 20.6901V22.9401C25.5009 23.1489 25.4581 23.3557 25.3745 23.5471C25.2908 23.7385 25.168 23.9103 25.0141 24.0515C24.8602 24.1927 24.6785 24.3002 24.4806 24.3671C24.2828 24.434 24.0731 24.4589 23.8651 24.4401C21.5572 24.1893 19.3403 23.4007 17.3926 22.1376C15.5804 20.9861 14.0441 19.4497 12.8926 17.6376C11.6251 15.681 10.8363 13.4533 10.5901 11.1351C10.5713 10.9277 10.596 10.7186 10.6624 10.5213C10.7289 10.3239 10.8358 10.1426 10.9761 9.98879C11.1165 9.83499 11.2874 9.7121 11.4779 9.62796C11.6684 9.54382 11.8743 9.50027 12.0826 9.50007H14.3326C14.6966 9.49649 15.0494 9.62538 15.3254 9.86272C15.6014 10.1001 15.7816 10.4297 15.8326 10.7901C15.9275 11.5101 16.1037 12.2171 16.3576 12.8976C16.4585 13.166 16.4803 13.4578 16.4205 13.7382C16.3607 14.0187 16.2217 14.2762 16.0201 14.4801L15.0676 15.4326C16.1352 17.3102 17.6899 18.8649 19.5676 19.9326L20.5201 18.9801C20.724 18.7784 20.9814 18.6395 21.2619 18.5796C21.5424 18.5198 21.8341 18.5417 22.1026 18.6426C22.783 18.8965 23.49 19.0726 24.2101 19.1676C24.5744 19.219 24.9071 19.4025 25.145 19.6832C25.3828 19.9639 25.5092 20.3223 25.5001 20.6901Z" stroke="#E1EBEE" stroke-width="2" stroke-linecap="round" stroke-linejoin="round"/>
</g>
<defs>
<clipPath id="clip0_1_3448">
<rect width="18" height="18" fill="white" transform="translate(9 8)"/>
</clipPath>
</defs>
</svg>
